<svg width="160" height="160" viewBox="0 0 160 160" fill="none" xmlns="http://www.w3.org/2000/svg">
<rect width="160" height="160" rx="16" fill="#254335"/>
<path d="M48.9833 51.0689L49.8426 51.2407L50.5301 51.4126L51.103 51.4413L51.3321 51.4699L51.6186 51.384L52.4492 51.1548L54.0247 51.0402L54.884 51.1835L55.1991 51.2407L56.4022 51.0402H57.5479L58.3786 51.1548L58.8942 51.2407L59.3239 51.1835L60.1832 51.0975L61.7587 51.298L62.5607 51.5845L63.3914 51.8709C63.4887 51.9044 63.5835 51.9462 63.6778 51.9855L64.2794 52.2433L64.9668 52.0714L66.3418 52.0428C66.7961 52.1174 67.2291 52.2941 67.6307 52.5297L68.2036 52.9021L68.8625 52.8162H69.0057L69.8937 52.7589L70.753 52.7303C71.1189 52.7103 71.4921 52.7336 71.8415 52.8162L72.844 53.1886L73.5888 53.6469L73.732 53.7614H73.9325L74.7918 53.8474L75.9663 54.1911L76.6537 54.5348L77.4844 54.4489L78.6588 54.5062L80.3202 54.8499C80.6747 54.9255 81.0003 55.068 81.2941 55.2223L82.0675 55.7379L82.755 56.3681L83.156 56.7118L83.5857 56.9696L84.3304 57.3706L84.5596 57.4279L85.5048 57.2847L86.7079 57.2274L88.0542 57.6857L88.7989 58.0867L89.4864 58.4591L89.4005 58.4305L90.1452 58.7742L90.9186 59.1466L92.0071 59.8913L92.5513 60.4069L93.1815 60.5502L93.4966 60.6074L94.3273 60.8366L95.1293 61.0658C95.8584 61.2588 96.4783 61.6406 96.9339 62.1256L97.5641 62.7844L97.7073 62.9276L98.2229 63.1282L98.939 63.3287L99.7697 63.5292L99.8557 63.5578L100.686 63.7583L101.517 63.9875L102.548 64.4171L103.264 64.8468L104.009 65.2765C104.409 65.5131 104.748 65.7937 105.012 66.1072L105.212 66.365L105.613 66.4223C106.388 66.4993 107.179 66.8289 107.819 67.4248L108.449 68.0263L109.108 68.6279C109.132 68.6506 109.17 68.6622 109.194 68.6852L109.709 69.2008L110.511 69.4013C110.84 69.4781 111.158 69.6121 111.457 69.7736L112.316 70.4038L112.774 70.8621L113.49 71.0054C114.061 71.1143 114.645 71.3495 115.152 71.7501L115.839 72.2943L116.068 72.4662L116.355 72.5808L117.157 72.8959L118.274 73.5261L119.592 74.6145L119.763 74.7578L120.394 75.3306L120.594 75.5025L120.795 75.5884L121.597 75.9035C122.084 76.0965 122.522 76.3748 122.886 76.7342L123.63 77.479L123.86 77.5936L124.662 77.9373C124.789 77.9944 124.911 78.0678 125.034 78.1378L126.524 78.9971L127.011 79.3409L127.698 79.8565L127.727 79.8851L127.813 79.9137L128.672 80.1143C129.086 80.2056 130.045 80.485 130.792 81.4319C131.643 82.5149 131.672 83.7293 131.508 84.4968L131.336 85.213L131.193 85.9291C131.213 85.8318 131.242 85.735 131.25 85.6713L131.021 87.3899C131.009 87.4817 130.981 87.5846 130.963 87.6764L130.677 89.3377L130.591 89.9679L130.505 90.8272C130.48 91.0552 130.455 91.2883 130.391 91.5147L130.133 92.3168L129.932 92.9469L129.961 92.9756L129.789 93.8063L129.588 94.6083C129.581 94.6417 129.596 94.6896 129.588 94.7229L129.388 95.5536L129.216 96.3843C129.128 96.7735 128.976 97.1435 128.786 97.4727L127.927 98.9622C127.912 98.9882 127.885 99.0223 127.87 99.0482L127.44 99.7929L127.24 100.079L127.182 100.394L127.011 101.225C126.956 101.466 126.872 101.734 126.753 101.999L126.438 102.715L126.094 103.402C126.063 103.469 126.038 103.543 126.008 103.603L125.636 104.376L125.378 104.806L125.292 105.293L125.063 106.181C124.844 107.067 124.318 107.835 123.573 108.358L123.287 108.529L123.258 108.902C123.048 110.13 122.243 111.058 121.253 111.566C121.161 112.465 120.766 113.445 119.878 114.144L119.162 114.688L118.675 115.032L118.303 115.49L117.73 116.12C117.684 116.17 117.634 116.215 117.587 116.263L116.985 116.894L116.383 117.495C116.36 117.519 116.322 117.529 116.298 117.552L115.925 117.896L115.811 118.755C115.696 119.473 115.336 120.32 114.579 120.99L113.949 121.563L113.29 122.136C113.211 122.205 113.115 122.272 113.032 122.336L112.373 122.852L111.972 123.138L111.657 123.539L111.084 124.198C110.471 124.923 109.665 125.312 108.907 125.458L108.649 125.487L108.535 125.716C108.226 126.248 107.761 126.76 107.131 127.12L106.387 127.549L105.642 127.95C105.183 128.212 104.705 128.376 104.238 128.437L103.35 128.552H103.15L103.064 128.638L102.348 129.067C102.052 129.245 101.732 129.374 101.402 129.468L100.572 129.698L100.343 129.755L100.085 129.955L99.3687 130.442C99.0036 130.694 98.5872 130.899 98.137 131.015L97.3063 131.216L96.5043 131.416H96.5615L95.7595 131.645L95.2439 131.789L94.757 132.046L93.9836 132.476C93.0502 132.964 92.0306 132.984 91.1764 132.734L90.9473 132.648L90.8327 132.763C90.053 133.287 89.0436 133.556 88.0255 133.364L87.1662 133.192L86.9943 133.135L86.8798 133.192L86.0204 133.364C85.6237 133.451 85.2194 133.488 84.8174 133.45L83.3851 133.307H82.669L81.8097 133.335C81.7039 133.338 81.5989 133.34 81.4946 133.335L80.7785 133.307L80.0338 133.765C79.4558 134.095 78.6734 134.331 77.7995 134.252L76.9688 134.166L76.1095 134.08C76.0473 134.075 75.9703 134.088 75.909 134.08L75.0783 133.966L74.5913 133.88L74.0471 133.937L73.2164 134.023C72.9909 134.042 72.7101 134.028 72.4144 133.994L72.1852 134.166L71.5264 134.682L71.2399 134.882L71.0108 135.226L70.4952 135.942C69.8651 136.827 68.925 137.35 67.9745 137.489L67.287 137.575L66.9146 138.005C66.1642 138.778 65.1128 139.181 64.0216 139.122L63.1336 139.093L62.5607 139.036L62.1024 139.122L61.2717 139.265C60.4461 139.392 59.6248 139.238 58.9229 138.864L58.1495 138.463L57.4047 138.062C56.7248 137.697 56.1792 137.117 55.8293 136.429L55.4282 135.656L55.3996 135.598L55.3137 135.541L54.5976 134.997C54.0505 134.578 53.5975 133.98 53.3372 133.25L53.0508 132.448L52.7643 131.617C52.7247 131.504 52.6808 131.39 52.6497 131.273L52.4206 130.442L52.2201 129.669V129.698L51.9909 128.896L51.7331 128.094C51.7229 128.06 51.7143 128.012 51.7045 127.979L51.4753 127.148L51.2175 126.346L51.0743 125.945L50.7306 125.687C50.642 125.627 50.5572 125.554 50.4728 125.487L49.7853 124.971L49.1265 124.456C49.0605 124.403 48.9889 124.339 48.926 124.284L48.2958 123.74L47.6656 123.167C47.6149 123.122 47.5716 123.07 47.5224 123.024L46.8922 122.451L46.2907 121.878L46.3766 121.935L45.7178 121.391L44.6866 121.133C44.1344 120.995 43.5409 120.718 43.0252 120.245L41.7649 119.099C41.2891 118.662 40.9822 118.14 40.791 117.638L40.6478 117.295L40.4186 117.209C39.5675 116.857 38.8232 116.194 38.4135 115.29L38.0411 114.459L37.9838 114.316L37.9265 114.287L37.2677 113.743C37.1013 113.597 36.9518 113.429 36.8094 113.256L35.7209 111.938L35.8642 112.081L35.7209 111.909L35.2626 111.451L34.6611 110.821C34.5181 110.669 34.3798 110.508 34.2601 110.334L33.7731 109.618L33.3148 108.902C33.0425 108.505 32.8495 108.081 32.7419 107.641L32.5128 106.782L32.4555 106.61L32.3982 106.524L31.8826 105.837C31.5725 105.427 31.3496 104.955 31.2238 104.462L31.0233 103.631L30.9946 103.488L30.966 103.459C30.5079 102.825 30.4005 102.202 30.3644 102.027C30.3108 101.767 30.2842 101.541 30.2785 101.426L30.2212 100.939L29.8775 100.566C29.4656 100.118 29.1492 99.5306 28.9895 98.8477L28.5885 97.1863C28.5376 96.9664 28.5168 96.7433 28.5026 96.5275L28.4453 95.6395L28.4166 95.3531L28.3307 95.1812L28.0442 94.551L27.7864 94.15L27.2708 93.4339C26.8634 92.8238 26.6467 92.0878 26.6407 91.3428V90.0825L26.5261 89.7101L26.3542 89.0799L26.0678 88.3065L25.7527 87.5045C25.7259 87.4327 25.719 87.3484 25.6954 87.2753L25.4376 86.4447L25.1798 85.6426C25.0287 85.1698 24.9481 84.6812 24.9793 84.2104L25.0652 83.4084L24.6929 82.7209C24.5347 82.4084 24.3921 82.0606 24.3205 81.6897L24.1773 80.859L24.0054 80.0283C23.966 79.8242 23.9564 79.6054 23.9481 79.3981L23.8908 78.5388L23.8622 77.6795L23.8908 77.8514V77.6508L23.8049 76.992L23.7189 76.1613C23.6451 75.422 23.7929 74.749 24.034 74.2135L24.4351 73.3255L24.4637 73.2396L24.3778 72.5808L24.2632 72.1511L24.0627 71.3204C24.031 71.1846 24.0243 71.0312 24.0054 70.8908L23.7762 69.2294C23.693 68.6104 23.7598 67.9948 23.9481 67.4535L24.1773 66.7946L24.0054 66.1645C23.8093 65.4424 23.8221 64.6729 24.0627 63.9588L24.2059 63.5292L24.0054 63.0422C23.8184 62.5798 23.692 62.0381 23.7189 61.4381L23.7476 60.5788L23.8049 59.7481L23.9767 58.7169C24.2901 57.786 24.9555 57.1062 25.6095 56.7118L26.4402 56.1962L27.2995 55.7093L28.9609 55.165L29.8202 55.0791L30.0493 55.0504L30.2785 54.9645L31.0519 54.5921L32.5987 54.2484L33.4867 54.2198H33.7445L33.8877 54.1625L34.2887 53.9906L34.7184 53.6755L35.4631 53.1313L36.4943 52.6157C36.8683 52.4924 37.2774 52.4134 37.6974 52.4152H38.9005L39.1869 52.3292L39.9889 52.0714C40.3424 51.9589 40.7048 51.9084 41.0488 51.8996L42.0513 51.9855L42.3664 52.0714L42.6529 51.8996C43.2931 51.5 44.1041 51.2548 44.9731 51.3267L45.8324 51.4126L46.0329 51.4413L46.2907 51.3553L47.1214 51.1262L48.038 50.9829L48.9833 51.0689ZM57.1756 130.041L58.6651 129.64L58.8083 129.468L57.1756 130.041ZM58.6651 129.64L57.1756 130.041L58.8083 129.468L58.6651 129.64ZM76.7969 126.805L77.3412 126.833L78.0859 126.432L79.0026 126.06C79.3438 125.971 79.7177 125.928 80.1197 125.945L80.979 125.974H83.8148L84.9606 126.088L85.2757 126.031L86.1064 125.831H87.6532L87.9396 125.859L88.2833 125.659L89.8015 125.057L91.4056 125.172L91.8352 125.286L92.1503 125.143L92.8378 124.857L93.6685 124.628L94.4705 124.37L94.671 124.313L95.5017 124.112L95.6736 124.055L95.9027 123.911L96.6188 123.425L97.7933 122.88L98.5953 122.651L98.939 122.537L99.2828 122.336L99.9989 121.906C100.486 121.613 101.003 121.454 101.488 121.391L102.405 121.276L102.577 121.248L102.663 121.19L103.121 120.417C103.682 119.455 104.636 118.84 105.67 118.641L106.301 118.498L106.616 118.154L107.217 117.552L107.905 117.037L108.449 116.636L108.478 116.607L108.764 116.321L108.879 115.633L109.222 114.573C109.395 114.216 109.634 113.842 109.967 113.514L110.569 112.941L111.772 111.738L112.316 111.165L112.373 111.107L112.889 110.563L113.462 109.933L113.949 109.475L114.092 109.332L114.149 108.959L114.35 107.985C114.677 107.074 115.366 106.297 116.269 105.866L116.355 105.808C116.526 104.862 117.067 103.988 117.902 103.402L118.245 103.116L118.389 102.686L118.704 101.827L119.076 101.082L119.42 100.366L119.735 99.6784L119.907 99.2773L120.021 98.7904L120.222 97.9597C120.311 97.5675 120.46 97.2017 120.651 96.8712L121.081 96.1265L121.539 95.3531L121.568 95.3244L121.998 94.551L122.141 94.2646L122.227 93.9495L122.427 93.1188V93.0902L122.599 92.2595L122.8 91.4288L122.857 91.1137L123.086 90.3116L123.287 89.5383L123.315 89.1945L123.401 88.3352L123.602 87.1321L123.745 86.4733L123.802 86.1296L123.144 85.614L122.571 85.1843L122.141 84.9265L121.654 84.6401L120.107 83.9526C119.672 83.7582 119.287 83.4743 118.961 83.1506L118.331 82.549L118.217 82.4345L118.102 82.4058L117.3 82.0907C116.878 81.9232 116.491 81.6753 116.154 81.3746L115.524 80.8017L114.865 80.2288L114.951 80.2861L114.865 80.2002L114.292 79.7419L114.063 79.5414L113.805 79.4554L113.003 79.169C112.622 79.027 112.24 78.8259 111.915 78.5675L111.256 78.0232L110.368 77.8514C109.661 77.7163 108.971 77.3874 108.42 76.8488L107.876 76.3046L107.131 76.1327C106.481 75.9805 105.855 75.6659 105.355 75.1874L104.725 74.5859L104.124 73.9844H104.095L103.694 73.612L103.064 73.5547C102.099 73.4588 101.185 72.9757 100.543 72.2084L99.9702 71.521L99.7411 71.2345L99.5692 71.1486L99.2541 70.9481L98.8531 70.8621L98.0224 70.6616L97.9365 70.633L97.1058 70.4325L96.2751 70.2033C96.1025 70.1584 95.9302 70.1003 95.7595 70.0314L94.9861 69.7164L94.1841 69.4013C93.6316 69.1766 93.1889 68.8323 92.8378 68.456L92.2649 67.8545L91.6061 67.7113L90.9186 67.568L90.0879 67.3962C89.3186 67.2454 88.6419 66.8888 88.1401 66.3936L87.5099 65.7348L87.3094 65.5343L86.2782 65.076C86.1809 65.0304 86.0845 64.9554 85.9918 64.9041L85.6194 64.7036L84.9606 64.8468C84.367 64.9619 83.5973 64.9609 82.8123 64.6463L81.2655 64.0161C81.1014 63.9504 80.9288 63.87 80.7785 63.787L80.0338 63.386L79.289 62.9563C79.0126 62.8028 78.778 62.6239 78.5729 62.4407L77.8854 61.8392L77.6849 61.7819L77.2553 61.8392L76.3673 61.9251C75.7235 61.9866 75.0165 61.863 74.3622 61.5527L73.5888 61.209L73.2737 61.0371H73.0159L72.1852 60.9225C71.6765 60.8583 71.1977 60.6968 70.7816 60.4642L70.0942 60.0919L69.4067 60.1205H69.4353L68.5474 60.2064L67.688 60.2637C66.8899 60.3255 66.1254 60.1254 65.4824 59.7481L65.11 59.519L64.709 59.6335C63.9802 59.7858 63.1986 59.7061 62.4748 59.4044L61.6727 59.0893L61.0139 58.8029L60.1832 58.5164L60.0686 58.4591L59.9541 58.4878L59.0947 58.5737C58.7962 58.5994 58.48 58.5881 58.1781 58.5451L57.3474 58.4018L57.0323 58.3445L56.66 58.4305L55.8006 58.5451C55.423 58.6021 55.0377 58.6009 54.6549 58.5451L53.7955 58.4305L53.6523 58.4018L53.5664 58.4305L52.707 58.6883C52.2999 58.7992 51.8632 58.8338 51.418 58.8029L50.5587 58.7456L49.728 58.6883C49.5239 58.6736 49.314 58.6431 49.1265 58.6023L48.2672 58.4018L47.4651 58.631C47.0164 58.7592 46.554 58.8126 46.0902 58.7742L45.5173 58.7169L44.9731 59.0893C44.1278 59.6168 43.1002 59.7855 42.1086 59.5476L41.2493 59.3471L40.5905 59.5763C40.1982 59.701 39.7878 59.7498 39.3874 59.7481H38.8145L38.2703 60.1491C38.0369 60.3179 37.7724 60.4813 37.4682 60.6074L36.6662 60.9225L35.8928 61.2663C35.4402 61.4523 34.9509 61.5429 34.4892 61.5527H33.4867L33.3721 61.61L32.5987 61.9824C32.2586 62.1391 31.8951 62.1873 31.5389 62.2402C31.7884 62.9762 31.8474 63.8156 31.5675 64.6463L31.3383 65.2478L31.5389 65.9353C31.7402 66.6763 31.6983 67.4582 31.4529 68.1696L31.1665 69.0289L31.1378 69.0862L31.2238 69.6591L31.3956 70.4898L31.5961 71.3204L31.7107 71.9506L31.8253 73.612C31.8808 74.3246 31.7366 74.9679 31.5102 75.4739L31.1092 76.3618L31.0805 76.3905L31.1665 77.1066C31.1758 77.2 31.1913 77.2997 31.1951 77.393L31.2238 78.2524V78.8539L31.367 79.4554L31.4243 79.8278L31.6248 80.2002L32.0258 80.9736C32.3285 81.5716 32.4717 82.261 32.4268 82.95L32.3695 83.838L32.3409 84.0672L32.3982 84.2104L32.6846 85.0411L32.9424 85.7286L33.2289 86.5306L33.3434 86.8457L33.5726 87.6764L33.8018 88.4784L33.9736 89.5383V90.2257L34.3746 90.8272L34.7184 91.4574L35.0335 92.2308L35.3772 93.0042L35.6923 94.3219L35.7496 95.1812L35.7782 95.6395L35.8928 96.2697L36.523 96.9285C36.8121 97.2423 37.0402 97.6179 37.2104 98.017L37.5255 99.306V100.108C37.6454 100.329 37.7532 100.485 37.7833 100.566C37.8437 100.73 37.8763 100.883 37.8979 100.967L38.1271 101.798L38.1557 101.97L38.7572 102.772L39.4447 104.204L39.6452 105.063L39.6739 105.264L39.8171 105.465L40.0176 105.78L40.5905 106.41L41.192 107.04L41.3925 107.298L41.9368 107.928L42.2805 108.358L42.7388 108.787L43.3976 109.332L44.3715 110.649L44.5147 110.964L44.9158 111.136C45.8911 111.542 46.619 112.334 46.9782 113.284L47.3219 114.172L47.3505 114.23L47.3792 114.258L48.2958 114.487L49.8426 115.29L50.5014 115.834L51.1316 116.378L51.3321 116.55L51.9336 117.123L52.5065 117.667L53.1367 118.211L53.6809 118.698C53.7117 118.723 53.7379 118.759 53.7669 118.784L54.3398 119.214L54.9986 119.758L55.5715 120.13L56.2589 120.589C56.9347 121.051 57.4584 121.741 57.7198 122.565L57.9776 123.367L58.2068 124.141C58.2214 124.187 58.2506 124.238 58.264 124.284L58.4932 125.086L58.751 125.917V125.945L58.9802 126.747L59.2379 127.549L59.5244 128.552L59.7249 129.383L59.8681 129.784L60.4983 130.271C60.9273 130.599 61.3112 131.043 61.5868 131.588L61.6727 131.76H61.7873L62.6466 131.703H62.7898L62.9044 131.617L63.907 130.872C64.2743 130.687 64.6605 130.558 65.0528 130.5L65.3965 130.442L65.5684 130.242L66.3418 129.44L67.0006 128.896L67.6594 128.38C67.6991 128.349 67.7624 128.324 67.8026 128.294L68.4614 127.778L69.1489 127.263C69.7775 126.794 70.7336 126.419 71.8415 126.547L72.5576 126.633L72.9586 126.661L73.4456 126.633L74.3049 126.575H75.1069L76.8256 126.805H76.7969ZM34.0023 101.225L35.1767 101.168L36.4657 100.223L35.2913 100.28L34.0023 101.225ZM34.6038 101.197L34.0023 101.225L35.2913 100.28L35.8928 100.251L34.6038 101.197ZM35.1767 101.168L34.6038 101.197L35.8928 100.251L36.4657 100.223L35.1767 101.168ZM30.4504 91.2856H32.0258L33.3148 90.4262H31.7394L30.4504 91.2856ZM32.0258 91.2856H30.4504L31.7394 90.4262H33.3148L32.0258 91.2856ZM126.667 84.9552L127.555 85.127L127.727 84.4109L126.839 84.239L126.667 84.9552ZM127.727 84.4109L127.555 85.127L126.667 84.9552L126.839 84.239L127.727 84.4109ZM111.371 72.5521L111.056 74.1562L112.201 72.9532L112.516 71.4064L111.371 72.5521ZM112.201 72.9532L111.056 74.1562L111.371 72.5521L112.516 71.4064L112.201 72.9532ZM90.7754 63.701L91.8925 62.5553L92.2076 60.9512L91.0905 62.0683L90.7754 63.701ZM91.8925 62.5553L90.7754 63.701L91.0905 62.0683L92.2076 60.9512L91.8925 62.5553Z" fill="#92B546"/>
<path d="M103.231 20.5633L103.804 20.9357L104.406 20.8498L105.838 20.9357L107.156 21.5945L107.872 22.1388L107.986 22.2534H108.072L108.903 22.4252C109.318 22.5211 109.71 22.7113 110.077 22.9408L110.794 23.3705L111.51 23.8288L112.684 24.9459L113.171 25.662V25.6907L113.286 25.748L114.059 26.2063C114.423 26.4182 114.753 26.7082 115.033 27.037L115.692 28.1541L116.007 28.9848L116.322 29.7868L116.551 30.7607L116.723 32.4794C116.745 32.6879 116.762 32.9206 116.752 33.1382L116.694 33.9689L116.666 34.8282C116.653 35.0708 116.606 35.3097 116.551 35.5443L116.15 37.2057C116.077 37.5122 115.978 37.8131 115.835 38.0937L115.434 38.8671L115.033 39.6118C114.998 39.6802 114.957 39.7452 114.918 39.8124L114.517 40.5571L114.431 40.6717L114.661 40.8722L114.718 40.9008L114.861 40.9581L115.778 41.1586C116.061 41.2234 116.35 41.3298 116.637 41.4737L117.468 42.0466L118.127 42.6195L118.757 43.1924L119.759 44.6532L119.874 44.9397L120.132 45.0543C120.97 45.3922 121.686 46.0388 122.108 46.9162L122.538 47.7755L122.595 47.8328L123.254 48.377L123.684 48.778L124.256 49.4082L124.858 50.0097L125.288 50.3821L125.946 50.955C126.082 51.0753 126.199 51.2175 126.319 51.356L126.892 52.0148L127.436 52.645C127.738 52.9946 127.969 53.3884 128.123 53.7908L128.439 54.6215L128.467 54.7361L128.553 54.822L129.183 55.4235L130.014 56.6839L130.358 57.4859L130.673 58.2593C130.742 58.4263 130.91 58.8517 130.959 59.4051L130.988 59.7202L131.303 60.3504L131.704 60.9232L132.22 61.6394C132.44 61.9399 132.64 62.2629 132.764 62.6133L132.964 63.7304L132.993 64.5897V64.9335L133.136 65.4204L133.394 66.2225L133.623 66.8526L133.938 67.6547L134.024 67.9125L134.282 68.7432L134.54 69.5452C134.694 70.0301 134.749 70.5237 134.712 71.0061L134.654 71.894L134.998 72.6101L135.342 73.7273L135.456 74.5866L135.571 75.4173C135.604 75.6611 135.611 75.9173 135.6 76.162L135.571 77.0214L135.514 77.8807L135.485 78.74V79.5994C135.461 80.4115 135.172 81.1226 134.798 81.6618L134.253 82.4352L134.139 82.5784V82.6357L133.996 83.4377L133.938 84.0965L133.852 84.9272C133.809 85.3422 133.685 85.7727 133.509 86.1589L133.165 86.9037L132.821 87.6771C132.713 87.9125 131.908 89.6437 129.785 89.8254C127.822 89.9892 126.737 88.6038 126.634 88.4791L126.204 87.9922L125.603 87.8203C124.897 87.6288 124.26 87.2235 123.769 86.6745L123.454 86.3594L122.967 86.3021C122.482 86.2434 121.956 86.0916 121.449 85.7865L120.705 85.3569L119.988 84.9272C119.923 84.8878 119.851 84.8262 119.788 84.784L119.1 84.3257L118.384 83.8674C118.123 83.6932 117.899 83.4817 117.697 83.2658L117.095 82.607L116.952 82.4352L116.78 82.3779L116.007 82.0341C115.547 81.8161 115.158 81.4996 114.832 81.1462L114.231 80.4873L114.088 80.3441L113.629 80.115L113.142 80.0577L112.254 79.8858C111.538 79.7612 110.827 79.4219 110.249 78.8546L109.619 78.2531L109.39 78.0239L109.189 77.938L108.416 77.5943C107.779 77.2945 107.278 76.8304 106.927 76.3339L106.783 76.1334L106.526 76.1048C105.817 76.0177 105.082 75.7131 104.463 75.1595L103.804 74.5866L103.69 74.472L103.547 74.4434L102.745 74.1569C102.175 73.9601 101.66 73.6234 101.255 73.2117L100.167 72.1232L99.7941 71.8654L99.5936 71.7222L99.4218 71.6935L98.5624 71.493C98.096 71.3781 97.6532 71.1563 97.2448 70.8628L96.5573 70.3759L96.3282 70.204L96.0417 70.1467L95.2397 69.8889C94.9196 69.7931 94.5871 69.6666 94.2944 69.4879L93.5783 69.0296L93.2059 68.8004L92.8622 68.7145L92.0315 68.4854C91.5534 68.3449 91.1234 68.0981 90.7425 67.7979L90.0551 67.2823L89.3676 66.738C89.3252 66.7046 89.2941 66.6576 89.253 66.6235L88.7661 66.2225L88.1359 66.1938C87.2479 66.1354 86.4222 65.7677 85.7871 65.1626L85.3287 64.7329L84.7559 64.6757L83.8679 64.5611L83.0086 64.4751C82.3242 64.4019 81.6587 64.1338 81.118 63.7304L80.316 63.1289H80.2301L79.3994 62.9283C79.0396 62.8488 78.6867 62.7287 78.3682 62.556L77.738 62.2122L76.9932 62.2695C76.6656 62.2931 76.2999 62.2849 75.9334 62.2122L75.1314 62.069L74.3007 61.8972C73.6447 61.7672 73.0766 61.4756 72.6393 61.1238L71.9232 60.5222L71.5508 60.2358L71.1784 60.0639L70.6055 59.8061L70.2618 59.7202L69.4598 60.0353C68.8028 60.2701 67.9389 60.3593 67.025 60.0639L66.1943 59.8061L65.3923 59.5483L65.7074 59.6056L65.3923 59.5197L64.8767 59.4337L64.046 59.2619C63.6326 59.1728 63.2486 59.0134 62.9289 58.8322L62.356 58.4885L61.7544 58.5744C61.7002 58.58 61.6375 58.5702 61.5826 58.5744L60.7232 58.6603L59.8639 58.7176C59.1561 58.771 58.4807 58.6173 57.9161 58.3453L57.1141 57.9442L57.0281 57.8869V57.9156H56.3979L55.8537 58.0302L55.023 58.202H55.0803L54.2496 58.3739L53.4189 58.5744C53.1106 58.6464 52.7758 58.6942 52.445 58.689L51.5857 58.6603H50.755C50.3285 58.6532 49.9324 58.5775 49.5806 58.4598L49.2941 58.3453L49.0363 58.5171C48.3847 58.8608 47.5951 59.026 46.7734 58.9181L45.0548 58.689H45.0834L44.3387 58.6031L43.6799 58.9468C43.1135 59.2262 42.4772 59.3791 41.818 59.3478L41.2164 59.2905L40.6435 59.6915C40.1807 59.9861 39.6206 60.1955 39.0108 60.2644L38.1515 60.3504H37.8937L37.6645 60.4936L36.8911 60.866C36.5395 61.0357 36.1628 61.1514 35.774 61.2097L34.9147 61.3243L34.084 61.4675C34.0396 61.474 33.9851 61.4618 33.9408 61.4675L33.0814 61.5821H32.8809L32.7377 61.6966L31.9643 62.1263C31.5334 62.3625 31.0647 62.4963 30.5894 62.556L28.8707 62.7851C28.7693 62.7978 28.3774 62.8489 27.8968 62.7851C27.6613 62.7533 27.1279 62.6574 26.5505 62.3268C25.8912 61.948 25.0852 61.1747 24.8032 59.9493L24.6886 59.491C24.5204 58.7523 24.6245 58.1319 24.6314 58.0875C24.6601 57.9056 24.6983 57.7579 24.7173 57.6864L24.9464 56.8844L25.1469 56.0823L25.4047 55.3949L25.7771 54.6215L25.8344 54.5069V54.335L25.8631 53.4471C25.8943 52.3713 26.3635 51.4103 27.0948 50.7545L27.7536 50.1816L27.9255 49.5514L28.0687 49.1218L28.3838 48.3197L28.6702 47.6036L28.9853 46.8016L29.2717 45.9709C29.3721 45.6996 29.5146 45.4428 29.6728 45.1975L30.5894 43.7653V43.7366L31.506 42.3044L31.6779 42.0466L32.1648 41.3591L32.6804 40.643L33.6543 39.6978L35.0865 38.7239L35.3443 38.552L36.0891 38.1223L36.5188 37.8359L36.7766 37.6067L37.3494 37.0052C37.5956 36.7601 37.8815 36.546 38.1801 36.375L38.9249 35.974L39.2973 35.7162L39.641 35.4298L40.0707 35.0001L40.4717 34.5418L41.0159 33.8257L42.1331 32.8518C42.5449 32.6183 43.002 32.4587 43.4793 32.3935L43.8804 32.3362L44.2241 31.9638C45.078 30.9531 46.3419 30.5389 47.5182 30.6748H47.5468L48.7213 29.7582C49.1975 29.5144 49.7474 29.3395 50.354 29.3285H51.242L51.9867 29.2999L52.531 29.2139L53.3616 29.0707C53.4536 29.0562 53.5549 29.0514 53.6481 29.0421L55.3095 28.8702C55.3607 28.8651 55.4298 28.8741 55.4813 28.8702L55.9683 28.8129L56.6271 28.2687C57.1755 27.7991 58.001 27.4062 59.0046 27.3807L59.8353 27.3521L60.6946 27.3234C60.786 27.3211 60.8892 27.3206 60.981 27.3234L61.8404 27.3521H62.27L62.757 27.2661L63.5877 27.0943C64.043 27.0016 64.4951 27.0043 64.9053 27.0656L66.0224 27.4093L66.1943 27.4953L66.3662 27.438L67.2255 27.1802C67.5326 27.1214 67.8573 27.0992 68.1994 27.1229L69.0588 27.1802L69.8894 27.2375L71.2357 27.5812L72.0664 27.9536L72.1237 27.9822H73.069C73.377 27.9775 73.6849 28.0017 73.9856 28.0682L74.8163 28.2687L74.9881 28.2973L75.2746 28.2687L76.1339 28.1541L77.3656 28.1827L78.1963 28.326L78.8551 28.4405L79.7145 28.5551L80.1728 28.5838L80.6884 28.5551L81.5477 28.4692L83.0086 28.5838L84.2116 29.1853L84.3548 29.2712H84.4694L85.873 29.1853L87.2479 29.615L87.563 29.7868C87.6018 29.3897 87.6689 28.9781 87.8495 28.5838L88.2218 27.7817L88.5942 26.951C88.7343 26.6458 88.9191 26.3583 89.1384 26.0917L89.7113 25.4042L90.2556 24.7168C90.2974 24.6661 90.3555 24.6225 90.3988 24.5736L91.0003 23.9147L91.5732 23.2273L92.9768 22.2247L93.8075 21.9096L94.6095 21.5659C94.812 21.4823 95.0451 21.4172 95.2683 21.3654L96.9297 20.9644L97.388 20.8784L98.2187 20.7925L98.7057 20.7352L99.2786 20.5347L100.138 20.2483L101.742 20.0764L103.231 20.5633ZM127.808 86.3021L128.553 85.7006L128.037 85.4715L127.808 86.3021ZM128.553 85.7006L127.808 86.3021L128.037 85.4715L128.553 85.7006ZM100.768 27.7817C100.533 27.8602 100.266 27.9185 99.9947 27.9536L99.1353 28.0682L98.3046 28.1541C98.4012 28.1416 98.4995 28.1465 98.5911 28.1255L97.7604 28.2973L97.2448 28.4119L96.586 28.6697H96.5L96.4714 28.7556L95.8985 29.4431L95.8699 29.4144L95.3543 30.0733L95.1538 30.3024L95.297 30.6748C95.454 31.0814 95.58 31.6113 95.5548 32.2216L95.5261 33.0236L95.4975 33.8543C95.4474 35.0041 94.8369 36.1947 93.6643 36.8906L93.0054 37.2916L92.3466 37.664C91.2121 38.3332 89.9805 38.2973 89.0525 37.9218L88.2505 37.5781L87.964 37.4635L87.6203 37.4349L86.761 37.3489C86.2065 37.3001 85.6936 37.1401 85.2428 36.8906L84.9277 36.7188L84.4981 36.8333C83.37 37.1214 82.2062 36.8695 81.3185 36.2032L80.9175 35.8881L80.5738 35.9454C80.299 35.9735 80.007 35.9497 79.7145 35.9167L78.8551 35.8308L78.0244 35.7449C77.9208 35.7329 77.8114 35.7062 77.7093 35.6876L76.8787 35.5443L76.5636 35.4584L76.3058 35.5157L75.4464 35.6589C74.9978 35.723 74.5077 35.7045 74.0429 35.6016L73.2408 35.4011L72.8398 35.3152H72.3529L71.4935 35.3438C70.8862 35.3542 70.3143 35.2194 69.8321 35.0001L69.0301 34.6277L68.715 34.4845H68.5718L68.5432 34.5131L67.6838 34.8855C66.6377 35.3564 65.4801 35.306 64.5043 34.8282L63.8455 34.5131L63.3872 34.6277C63.085 34.6892 62.7534 34.724 62.4419 34.7137L61.6112 34.685L60.8092 34.6564H60.4082L59.8926 35.1433C59.3971 35.5677 58.6532 35.9872 57.7156 36.0599L56.8849 36.1172L56.0256 36.1745H56.0542L55.2235 36.2605L54.3642 36.3464C54.4111 36.3417 54.4616 36.325 54.5074 36.3177L53.6767 36.461L52.846 36.6042C52.6472 36.6358 52.4321 36.6294 52.2445 36.6328H52.1013L51.9008 36.8906C51.0819 37.8669 49.8227 38.3748 48.5494 38.2083L48.5207 38.1796C47.9401 38.8253 47.1701 39.3171 46.2578 39.44L45.8855 39.4686L45.685 39.7551C45.5589 39.9156 45.4233 40.0864 45.2553 40.242L44.6251 40.8149L44.0236 41.3878C43.8029 41.5919 43.5393 41.7543 43.2788 41.9034L42.5627 42.3331L42.1617 42.5336L41.9325 42.7914L41.3597 43.3929C41.1181 43.6334 40.8343 43.8315 40.5576 43.9944L39.8129 44.4241L39.0681 44.8824C39.1141 44.8553 39.1685 44.8254 39.2113 44.7965L38.4952 45.2834L38.2374 45.4266L38.1228 45.6272L37.6359 46.3146L37.2635 46.9162L36.8338 47.6323C36.8116 47.6678 36.7707 47.7116 36.7479 47.7468L36.2896 48.4629L36.0318 48.864L35.8599 49.3223L35.5735 50.1243C35.5523 50.1821 35.5109 50.2384 35.4876 50.2962L35.1725 51.0696L34.972 51.5565L34.7428 52.3872L34.5137 53.1893C34.4252 53.4977 34.2324 53.763 34.084 54.02H34.1413L34.4564 53.8767L35.2298 53.5044C35.6225 53.3137 36.0526 53.2103 36.4901 53.1606L37.3494 53.046L37.464 53.0174L38.2088 52.5304L39.2686 52.0721C39.6387 51.9723 40.0409 51.9097 40.443 51.9289L41.2451 51.9576L42.0185 51.5852C42.6497 51.2729 43.3804 51.136 44.1095 51.2128L44.9688 51.2987L45.8568 51.4133C45.9039 51.4184 45.953 51.4072 46 51.4133L46.5729 51.4706L47.2318 51.1555C47.6761 50.9207 48.1676 50.7983 48.664 50.7545L50.1821 50.9264L51.3852 51.3274H52.1299L52.5882 51.2415L53.4189 51.0409C53.4911 51.0241 53.5754 51.0262 53.6481 51.0123L54.4788 50.8404L55.3381 50.6686C55.5583 50.6266 55.7955 50.6164 56.0256 50.6113L56.8563 50.5826H57.7156L59.4629 50.955L60.2076 51.2987L60.981 51.2701L61.8404 51.1842L62.7283 51.0982L63.9028 51.1555C64.2804 51.2367 64.6379 51.3742 64.9626 51.5565L65.7647 52.0148L66.0797 52.1867L66.4235 52.2726L67.2255 52.4445L67.6838 52.5591L68.1135 52.7023L68.8296 52.4445C69.1384 52.3328 69.5028 52.2691 69.8894 52.244L71.0925 52.3586L71.9232 52.5877L72.7539 52.7882L73.3554 53.0174L74.1574 53.3611L74.9308 53.7049C75.2659 53.8541 75.5671 54.045 75.8188 54.2491L76.5349 54.822L76.5636 54.8506L76.936 54.9079H77.3656L78.2536 54.822C78.5958 54.7965 78.9618 54.8356 79.3134 54.9079L80.3733 55.2803L81.118 55.71L81.4045 55.8532L81.8055 55.9678L82.6362 56.1396L84.097 56.8271L84.7272 57.2854L85.5006 57.3713C85.5415 57.3757 85.6031 57.3664 85.6438 57.3713L87.3625 57.6005C87.7853 57.6516 88.1994 57.7673 88.5656 57.9442L89.5395 58.6031L89.9118 58.9468L90.3988 59.0041C91.18 59.0526 91.9442 59.3392 92.5758 59.8634L93.2632 60.4363L93.9221 60.9805L94.6095 61.5248L94.6955 61.6107L94.9246 61.668L95.7266 61.9258C96.0517 62.0208 96.3777 62.1487 96.6719 62.3268L97.4167 62.7851L97.7318 62.9856L98.1614 63.1002L98.9921 63.358L100.138 63.9309L100.825 64.4179L100.94 64.5038L101.169 64.5611L102 64.7902C102.455 64.902 102.916 65.0804 103.317 65.3631L104.005 65.8787L104.721 66.3657L105.265 66.824L105.867 67.4542L105.895 67.4828L105.953 67.5114L106.755 67.7979L108.072 68.5426L108.531 68.9437L109.247 69.0582C110.281 69.1853 111.234 69.7331 111.853 70.605L112.398 71.3498L113.085 71.6649C113.485 71.8527 113.839 72.1104 114.145 72.4096L114.575 72.8393L115.291 72.9825L116.293 73.2976L117.067 73.6413L117.84 74.0137L119.043 74.9017L119.645 75.5319L119.759 75.6751L120.676 76.1334L121.85 76.9927L122.452 77.6229L122.796 77.9666L123.168 78.2244L123.798 78.6541L124.514 79.0838L124.543 79.1124L125.689 79.2556C126.258 79.3246 126.811 79.5715 127.321 79.9145C127.444 79.5861 127.528 79.2648 127.694 79.0265L128.152 78.339L128.181 77.6802C128.182 77.6345 128.207 77.5826 128.209 77.537L128.238 76.6776V76.1048L128.181 75.5605L128.123 75.2168L127.98 74.9017L127.608 74.071C127.34 73.4878 127.212 72.838 127.264 72.1805L127.35 71.2925V71.0633L127.321 70.9488L127.092 70.2899L126.806 69.4879L126.491 68.6859C126.455 68.5923 126.406 68.4959 126.376 68.3994L126.147 67.5974L125.889 66.7953C125.783 66.4544 125.731 66.0966 125.717 65.7641L125.66 65.048L125.259 64.5324C125.138 64.366 125.016 64.1856 124.915 63.9882L124.543 63.2434L124.142 62.47C124.035 62.2603 123.801 61.7472 123.741 61.0665L123.712 60.6082L123.569 60.2931L123.512 60.1498L122.796 59.4337C122.399 59.0407 122.097 58.553 121.908 58.0588L121.593 57.2568L121.478 56.9703L121.335 56.7985L120.79 56.2256L120.418 55.8818L119.788 55.3089C119.689 55.2213 119.594 55.1207 119.501 55.0225L118.9 54.3923L118.413 53.8767L117.983 53.5616L117.324 53.0174C116.864 52.6474 116.503 52.1946 116.265 51.6998L116.093 51.3274L115.692 51.1842C114.7 50.7871 113.939 49.9925 113.572 49.0358L113.257 48.1479L113.228 48.0906L112.312 47.8901C111.825 47.7786 111.29 47.5373 110.794 47.1453L109.476 46.1141C109.441 46.0865 109.396 46.0563 109.361 46.0282L108.703 45.5126L108.072 44.9683C107.728 44.6864 107.278 44.2497 106.984 43.5934L106.726 42.9632L106.468 42.3617C105.745 40.7383 106.35 39.2774 106.955 38.5234L107.499 37.8645L107.901 37.3489L108.158 36.8906L108.531 36.2605C108.545 36.232 108.572 36.2031 108.588 36.1745L108.932 35.4871L109.104 35.1147L109.218 34.685L109.333 34.1694L109.361 33.5965L109.39 32.995L109.333 32.3935L109.275 31.9065L108.788 31.6487C108.312 31.3711 107.869 30.9575 107.528 30.4456L107.07 29.7295L106.984 29.615L106.927 29.5863L106.697 29.4431L106.411 29.3858L105.58 29.1853C105.021 29.056 104.507 28.8182 104.091 28.4978L103.833 28.2973L103.518 28.3546C102.652 28.4599 101.813 28.2324 101.14 27.839L100.911 27.6958L100.768 27.7817ZM113.142 74.6439L112.885 76.1334L114.002 74.9876L114.26 73.5268L113.142 74.6439ZM114.002 74.9876L112.885 76.1334L113.142 74.6439L114.26 73.5268L114.002 74.9876ZM110.049 74.0996L111.452 73.0971L112.226 71.4357L110.822 72.4383L110.049 74.0996ZM111.452 73.0971L110.049 74.0996L110.822 72.4383L112.226 71.4357L111.452 73.0971ZM107.156 70.8342L106.984 72.2951L108.044 71.1206L108.244 69.6025L107.156 70.8342ZM108.044 71.1206L106.984 72.2951L107.156 70.8342L108.244 69.6025L108.044 71.1206ZM76.1339 56.7412L76.5349 56.2542L76.449 55.1657L76.1339 56.7412ZM76.5349 56.2542L76.1339 56.7412L76.449 55.1657L76.5349 56.2542ZM90.1696 32.7945L89.8546 33.5965H89.9405L90.4274 34.4559L91.1149 32.8231L90.1696 32.7945ZM90.7712 33.6252L90.4274 34.4559L89.9405 33.5965L90.7712 33.6252ZM90.1696 32.7945L91.1149 32.8231L90.7712 33.6252L89.8546 33.5965L90.1696 32.7945ZM91.3727 32.1643L91.6878 32.0497H91.43L91.3727 32.1643ZM91.6878 32.0497L91.3727 32.1643L91.43 32.0497H91.6878Z" fill="#92B546"/>
<path d="M80.5109 90.9072C80.4045 89.6974 82.7301 89.5288 82.8554 88.1275C82.9799 86.715 81.9453 86.196 82.638 84.7684C83.3302 83.3349 82.9894 81.6064 83.6169 81.0638C84.2507 80.4969 82.896 80.0696 83.438 79.1968C83.9839 78.2953 83.9374 77.6736 83.6734 76.7221C83.4203 75.7736 83.52 73.122 84.1948 72.2325C84.8964 71.3056 84.0147 70.0919 83.7999 69.4109C83.7344 69.1978 83.6369 69.0377 83.534 68.9185C83.4904 68.868 83.3985 68.8453 83.3079 68.8453C83.3078 68.8453 83.3078 68.8453 83.3077 68.8453C83.1948 68.8455 83.084 68.8799 83.0693 68.9425C82.9991 69.2387 82.7992 69.7482 82.349 70.244C81.4974 71.2041 82.327 71.4056 81.7325 72.7327C81.1223 74.0518 80.193 74.7265 80.3354 76.4353C80.456 78.1765 78.3169 78.027 78.8782 80.5906C79.4112 83.1838 77.2041 82.8197 76.2448 84.9524C75.2821 87.0839 75.4921 90.2689 74.9183 91.5748C74.3511 92.8751 73.458 94.5671 73.0063 96.5372C72.5537 98.5149 70.9363 100.518 70.5287 102.736C70.1322 104.96 69.3679 108.068 69.0826 109.547C68.7973 111.036 68.7116 111.403 67.7764 112.473C67.2432 113.074 66.8003 114.066 66.7295 115.163C66.7019 115.7 67.0815 115.86 67.5141 115.574C68.1577 115.135 68.3055 114.55 68.9293 114.496C70.1751 114.381 70.6736 114.297 70.6406 113.184C70.5905 112.093 71.9629 112.328 72.0857 111.775C72.2047 111.209 71.5331 110.881 73.2852 108.672C75.0231 106.446 75.7605 105.103 76.3079 104.209C76.8599 103.302 77.071 101.042 77.9171 99.5575C78.7765 98.0718 79.7656 94.7699 80.5981 93.5923C81.4371 92.4124 80.6126 92.1215 80.5109 90.9072ZM96.2855 99.7342C96.359 98.6344 98.6295 98.9951 98.9496 97.7451C99.2594 96.4988 98.3219 95.8262 99.1655 94.6819C100.012 93.5224 99.8567 91.9236 100.53 91.5349C101.207 91.137 99.9201 90.5388 100.54 89.8413C101.155 89.1441 101.176 88.5636 101.002 87.6928C100.842 86.8085 101.194 84.5009 101.973 83.8437C102.763 83.1922 102.079 81.9801 102 81.367C101.976 81.1739 101.916 81.011 101.843 80.8794C101.812 80.8237 101.729 80.78 101.641 80.7572C101.641 80.7572 101.641 80.7572 101.641 80.7572C101.531 80.7289 101.416 80.7329 101.387 80.7864C101.248 81.0457 100.962 81.4122 100.435 81.7789C99.4491 82.4633 100.237 82.7895 99.4918 83.873C98.7427 84.9422 97.7699 85.3835 97.7501 86.9136C97.7072 88.4654 95.6336 87.976 95.9438 90.3024C96.2102 92.6623 94.098 91.9358 92.9445 93.5662C91.7887 95.1919 91.571 97.987 90.8291 98.9815C90.1001 99.9698 88.9967 101.2 88.2454 102.796C87.4913 104.402 85.6205 105.702 84.8524 107.554C84.0875 109.412 82.8572 111.987 82.3792 113.263C81.9051 114.536 81.7795 114.843 80.7761 115.626C80.2017 116.073 79.6819 116.921 79.5829 117.925C79.5323 118.432 79.8998 118.617 80.3187 118.416C80.9311 118.123 81.1105 117.618 81.6998 117.693C82.8752 117.846 83.3422 117.885 83.4114 116.892C83.4765 115.903 84.7383 116.451 84.9202 115.991C85.1001 115.529 84.497 115.049 86.469 113.563C88.4397 112.068 89.3718 111.099 90.0419 110.458C90.717 109.811 91.3189 107.87 92.381 106.783C93.4594 105.701 94.968 103.014 95.9524 102.157C96.9472 101.3 96.202 100.841 96.2855 99.7342ZM107.077 111.323C107.08 110.579 109.026 111.614 109.249 110.846C109.458 110.088 108.608 109.319 109.288 108.829C109.968 108.334 109.769 107.231 110.349 107.206C110.935 107.171 109.771 106.357 110.297 106.121C110.828 105.874 110.828 105.522 110.656 104.916C110.485 104.314 110.791 103.006 111.511 102.874C112.238 102.738 111.633 101.792 111.578 101.401C111.562 101.278 111.511 101.161 111.449 101.059C111.422 101.016 111.347 100.962 111.267 100.919C111.267 100.919 111.267 100.919 111.267 100.919C111.167 100.866 111.06 100.83 111.032 100.852C110.896 100.96 110.623 101.083 110.133 101.127C109.219 101.206 109.928 101.669 109.248 102.075C108.563 102.483 107.689 102.428 107.708 103.371C107.717 104.319 105.84 103.331 106.235 104.902C106.598 106.498 104.706 105.331 103.849 105.971C102.995 106.607 103.058 108.39 102.529 108.796C102.014 109.194 101.238 109.605 100.761 110.43C100.273 111.267 98.9345 111.416 98.4373 112.45C97.9384 113.494 97.0852 114.899 96.7452 115.662C96.4089 116.424 96.3181 116.604 95.5975 116.756C95.1859 116.84 94.8135 117.257 94.7334 117.987C94.6918 118.355 94.9521 118.664 95.2544 118.697C95.6974 118.745 95.824 118.44 96.2494 118.76C97.0952 119.402 97.4285 119.642 97.4893 118.904C97.5433 118.171 98.4531 119.152 98.5913 118.875C98.7268 118.597 98.2823 117.968 99.7342 117.683C101.191 117.388 101.899 117.034 102.404 116.824C102.919 116.609 103.353 115.388 104.165 114.996C104.993 114.609 106.127 113.198 106.91 112.935C107.702 112.673 107.064 112.074 107.077 111.323ZM58.0091 85.5209C57.7099 84.3895 59.9786 83.9657 59.9277 82.6623C59.883 81.3506 58.804 80.9216 59.3749 79.5296C59.9472 78.1418 59.5372 76.5182 60.153 75.985C60.7689 75.4536 59.4059 75.0459 59.9459 74.205C60.4855 73.3713 60.4526 72.7684 60.2189 71.8532C59.9841 70.9313 60.2816 68.3695 61.0836 67.6272C61.8801 66.8936 61.2268 65.6041 61.1798 64.9267C61.1653 64.7154 61.1134 64.537 61.0476 64.3924C61.0196 64.3312 60.9381 64.2829 60.851 64.2576C60.851 64.2576 60.8509 64.2576 60.8509 64.2576C60.7425 64.2261 60.6257 64.2303 60.5937 64.2894C60.4385 64.5762 60.131 64.9816 59.5836 65.4051C58.5613 66.2034 59.3414 66.5384 58.5806 67.7964C57.824 69.0475 56.8384 69.6704 56.8987 71.4141C56.9647 73.1571 54.8067 73.0038 55.4082 75.6001C56.0277 78.1815 53.8115 77.9126 53.0234 80.201C52.2354 82.495 52.9271 85.7003 52.6243 87.1049C52.3116 88.5154 51.8019 90.4235 51.908 92.503C52.0105 94.5673 51.1306 97.0806 51.634 99.3749C52.119 101.663 52.9208 104.816 53.4849 106.232C54.0421 107.647 54.1753 107.977 54.0642 109.401C54.0017 110.213 54.2936 111.302 54.999 112.135C55.3545 112.556 55.7327 112.386 55.8518 111.896C56.0271 111.18 55.7683 110.66 56.2184 110.245C57.1204 109.424 57.4672 109.109 56.7945 108.304C56.1245 107.499 57.4053 106.963 57.2116 106.479C57.0265 105.997 56.2148 106.051 56.6883 103.453C57.1846 100.87 57.3741 99.4896 57.5345 98.5314C57.6947 97.5792 57.1034 95.5353 57.4773 93.9773C57.829 92.4297 57.9865 89.2179 58.5854 87.9963C59.174 86.7787 58.3139 86.6457 58.0091 85.5209ZM40.2605 85.5712C40.7905 86.4298 38.6789 87.259 39.0586 88.3359C39.441 89.4066 40.5924 89.4766 40.4426 90.7318C40.2951 91.9924 41.2013 93.144 40.7933 93.7393C40.3857 94.3383 41.8031 94.2392 41.5779 95.0464C41.3539 95.8559 41.5948 96.3028 42.1365 96.9196C42.6765 97.5391 43.3381 99.5428 42.8812 100.366C42.4229 101.195 43.5188 101.911 43.8234 102.387C43.9184 102.536 44.0352 102.648 44.1517 102.73C44.2011 102.765 44.2947 102.771 44.3844 102.758C44.3845 102.758 44.3845 102.758 44.3846 102.758C44.4963 102.742 44.6018 102.696 44.6082 102.641C44.6395 102.375 44.7655 101.97 45.1073 101.467C45.7445 100.524 44.8959 100.55 45.1312 99.3745C45.3673 98.1926 46.0562 97.4225 45.3901 96.1665C44.7273 94.9058 46.7948 94.3599 45.4034 92.6384C44.0195 90.8974 46.2086 90.4851 46.3573 88.6371C46.5071 86.795 45.1754 84.5488 45.247 83.4289C45.314 82.3156 45.5469 80.8311 45.2674 79.2597C44.9856 77.6786 45.7826 75.7614 45.3527 74.0007C45.3193 73.8634 45.2854 73.7211 45.2514 73.5747C44.843 71.8487 44.4221 69.6063 44.1098 68.5081C43.7702 67.3177 43.6978 67.0244 44.0748 65.9411C44.2921 65.3181 44.2367 64.4275 43.7493 63.6226C43.5041 63.2173 43.097 63.2588 42.8659 63.6157C42.5281 64.1389 42.6672 64.6118 42.1404 64.8466C41.0881 65.3155 40.6815 65.5246 41.1908 66.3046C41.7009 67.0821 40.354 67.3019 40.4677 67.7405C40.584 68.1798 41.3518 68.233 40.5874 70.342C40.1326 71.6082 39.8768 72.5464 39.7036 73.2691C39.5875 73.7575 39.5094 74.1394 39.4361 74.4719C39.2517 75.2937 39.8648 77.0449 39.6029 78.3875C39.3295 79.7351 39.5797 82.4859 39.2223 83.6069C38.859 84.7322 39.733 84.7053 40.2605 85.5712Z" fill="#92B546"/>
</svg>
