<svg width="748" height="50" viewBox="0 0 748 50" fill="none" xmlns="http://www.w3.org/2000/svg">
<g clip-path="url(#clip0_48_11)">
<path d="M69.7251 6.77236L54.8653 49.1772C53.9538 51.7781 55.8842 54.5 58.6402 54.5H73.5H88.3598C91.1158 54.5 93.0462 51.7781 92.1347 49.1772L77.2749 6.77236C76.0241 3.20281 70.9759 3.20281 69.7251 6.77236Z" fill="white"/>
<path d="M74.7266 0.757812C75.0278 0.824687 75.2911 0.935484 75.5234 1.0625L76.1328 1.48438L76.6953 2L76.9297 2.21094L77.1641 2.32812L77.7969 2.60938C78.1229 2.75595 78.4352 2.95266 78.6875 3.19531L79.2969 4.03906L79.6016 4.67188L79.9297 5.30469L80.2109 5.77344L80.5625 6.38281L81.0078 7.69531L81.0547 8.39844V8.5625L81.1484 8.72656L81.3359 9.10156L81.7109 9.71094L82.0859 10.2969C82.3727 10.7412 82.5413 11.2546 82.5781 11.7734L82.625 12.5L82.6953 13.2031V14.4219L82.7891 14.7266L83 15.3828L83.0234 15.4297L83.2344 16.0859L83.3984 16.5781L83.6562 17.2344L83.9141 17.8672C83.9363 17.9212 83.9643 17.9763 83.9844 18.0312L84.2188 18.6875L84.2656 18.8516L84.4297 19.0391L84.9219 19.625C85.1018 19.8405 85.2487 20.086 85.3672 20.3516L85.625 21.2188L85.7188 21.9219L85.7422 22.2031L85.8828 22.5781L86.3984 23.8438L86.6797 24.4766C86.6942 24.5103 86.7127 24.5597 86.7266 24.5938L87.2422 25.8594L87.3594 26.1875L87.5703 26.8438L87.6641 27.2188L87.8516 27.5234L88.2031 28.1328C88.54 28.7115 88.6682 29.3575 88.625 29.9375L88.6016 30.0312L88.7422 30.1719C89.5001 30.9008 89.8056 31.9376 89.6328 32.9141L89.5625 33.2656L89.6797 33.4531C89.8384 33.677 89.9599 33.9223 90.0547 34.1797L90.2422 34.9766L90.2656 35.4219L90.6406 35.8438L91.2266 36.8047L91.4844 37.4375L91.7188 38.0938L91.9297 38.9141L92.0703 40.3203L92.0938 40.4609L92.1406 41.1875V41.2344L92.1641 41.2812L92.375 41.6562L92.7266 42.0547L93.2188 42.6172C93.8686 43.377 94.0524 44.3364 93.8984 45.1719L93.7578 45.9688L93.7344 46.0625L93.875 46.5078L94.0859 46.9062L94.2266 47.1875L94.5781 47.6328L95.0703 48.2422C95.3654 48.6049 95.6777 49.1524 95.75 49.8594C95.8225 50.5713 95.6343 51.1803 95.3984 51.6172L95.0234 52.2969L94.8125 52.6953L94.7422 53L94.5781 53.6797C94.3722 54.4976 93.8354 55.189 93.1016 55.6016L92.4922 55.9531L92.2109 56.0938L91.9062 56.3984L91.3672 56.9141C91.0379 57.2336 90.5664 57.5398 89.9609 57.6875C89.3564 57.8337 88.8041 57.772 88.3672 57.6406L87.6406 57.4297L87.5469 57.3828V57.4062L86.9844 57.5L86.3047 57.6641L85.6016 57.8516C85.3259 57.9181 85.0327 57.9557 84.7344 57.9453L84.0547 57.8984L83.3516 57.875C82.7613 57.8541 82.255 57.676 81.875 57.4531L81.5 57.2188L81.2656 57.2891L81.2422 57.3125L80.5391 57.4766L79.8594 57.6406C79.4692 57.7369 79.0526 57.7717 78.6406 57.7109L77.9375 57.5938L77.2578 57.5C77.2041 57.492 77.1469 57.4863 77.0938 57.4766L76.4609 57.3359L76.4375 57.3594L75.7344 57.5703C75.5087 57.6429 75.2641 57.6894 75.0078 57.7109L74.3281 57.7812L73.625 57.8281C73.2071 57.8629 72.7995 57.8252 72.4297 57.7109L71.75 57.5L71.5391 57.4297L71.4219 57.4531L70.7188 57.5C70.3377 57.5283 69.9612 57.48 69.6172 57.3828L69.2656 57.2656L68.8438 57.4766C68.2258 57.754 67.4916 57.8441 66.7578 57.6406L66.3359 57.5234L65.9141 57.7109C65.156 58.0345 64.292 58.0531 63.5234 57.7344L63.0312 57.5234L62.6094 57.6406C62.0681 57.7792 61.4969 57.7694 60.9688 57.6172L60.5469 57.5L60.125 57.6875C59.4927 57.949 58.7687 57.9996 58.0859 57.8047L57.3828 57.5938L56.6797 57.4062C56.4597 57.3434 56.2361 57.2392 56.0234 57.125L55.4141 56.7969L54.7812 56.4688C54.1937 56.1532 53.7058 55.6378 53.4219 55.0156L53.1406 54.3828L52.8594 53.8203L52.6953 53.5859L52.3203 53.0469C51.9269 52.4761 51.7378 51.7897 51.7812 51.1016L51.8281 50.4219L51.8516 50.2812L51.7344 50C51.7135 49.9378 51.5902 49.551 51.5938 49.0625C51.5952 48.9307 51.6095 48.2077 52.0859 47.4688V47.3516L52.3906 46.3906C52.5335 46.1037 52.6992 45.8343 52.9062 45.6172L52.9531 45.5703L52.9297 45.4766C52.845 44.9611 52.8906 44.3392 53.1641 43.7188L53.4219 43.0859L53.6328 42.6172C53.6524 42.561 53.6794 42.5071 53.7031 42.4531L53.8672 41.9844L54.0547 41.4453L54.1953 40.8828L54.3359 40.2031C54.4924 39.5401 54.8572 39.0237 55.25 38.6562L55.3203 38.5625V38.5156C55.2314 37.6488 55.5075 36.7591 56.1172 36.1016L56.6328 35.5625L56.7266 35.4453L56.8203 35.0703L56.8672 34.6484L56.9375 33.9453L56.9844 33.5234L57.2656 32.1641L57.5469 31.3672C57.669 31.1301 57.8262 30.9221 57.9922 30.7344L58.4844 30.1719L58.5312 30.1016L58.5547 30.0547L58.7656 29.375L58.9062 28.9531L59.1875 28.3203L59.3984 27.8281L59.5625 27.3359L59.6328 27.0547V26.75L59.6094 26.0234C59.6035 25.4606 59.7602 24.8767 60.0781 24.3594L60.4531 23.75L60.4766 23.6797L60.5 23.6328L60.5703 22.9297L60.8281 21.9688C60.967 21.6691 61.1547 21.4022 61.3672 21.1719L61.5312 20.9609V20.7266C61.5084 20.3074 61.5854 19.8439 61.7656 19.3906L62.0234 18.7344L62.2812 18.1016L63.0078 17V16.9766C62.9402 16.5792 62.9372 16.0961 63.0781 15.5938L63.4531 14.2812L63.7344 13.5547L64.4375 12.3359L64.625 11.8906L64.9062 11.2578C64.9189 11.2296 64.9401 11.1921 64.9531 11.1641L65.2344 10.5312L65.3047 10.3906V10.2266L65.3516 9.5L65.6328 8.375C65.7904 8.04023 66.0182 7.75371 66.2656 7.50781L66.4766 7.29688V7.0625C66.4693 6.28424 66.7576 5.48643 67.3438 4.88281L67.8359 4.36719L68.3281 3.875L69.1719 2.9375C69.3546 2.7392 69.558 2.57894 69.7578 2.44531L70.3438 2.07031L70.9062 1.69531L71.6562 1.32031L72.3828 1.08594L73.0859 0.851562L73.8594 0.6875C74.1307 0.668879 74.424 0.690965 74.7266 0.757812ZM58.0156 52.625L57.8516 52.2031L57.2891 53.2344L57.9219 52.9531L58.0156 52.625ZM58.0156 52.625L57.9219 52.9531L57.2891 53.2344L57.8281 52.2266H57.8516L58.0156 52.625ZM78.1484 51.5703L78.8281 51.6641H78.9453L79.1094 51.6406L79.8125 51.4766L79.8828 51.4531L80.5625 51.2891L81.2656 51.125L82.5078 51.1016L83.5391 51.4766L84.2188 51.875L84.2891 51.9219H84.5234L84.875 51.8516L85.5547 51.6875L85.8125 51.6172L86.5156 51.5L87.1953 51.3828L88.4141 51.4531C88.572 51.3152 88.749 51.1692 88.9531 51.0547L89.0469 50.9844L89.0938 50.8672L89.2344 50.4922C89.1783 50.4043 89.0979 50.312 89.0469 50.2109L88.7422 49.6016L88.4141 48.9688C88.3392 48.8191 88.279 48.6613 88.2266 48.5L87.8047 47.1875C87.6226 46.6235 87.6285 46.0782 87.7109 45.6406L87.7344 45.4531L87.6875 45.4062C87.5623 45.2606 87.442 45.0955 87.3359 44.9141L86.6328 43.6953C86.3928 43.2826 86.2471 42.8208 86.2109 42.3594L86.1641 41.6562L86.0234 40.25L85.9766 39.8516L85.8828 39.6172L85.7891 39.4062L85.6484 39.2422L85.1562 38.7031C84.7437 38.2337 84.4685 37.6046 84.4062 36.9219L84.3359 36.2656L83.9609 35.75C83.6964 35.377 83.5247 34.9758 83.4453 34.5781V33.3828C82.8261 32.7707 82.464 31.9156 82.5312 30.9922L82.5547 30.3594L82.3203 29.9375C82.1971 29.7254 82.0895 29.4997 82.0156 29.2578L81.8281 28.5781L81.6875 28.1328L81.4297 27.5L81.1719 26.8438L80.6094 25.5781C80.5945 25.5434 80.6002 25.4959 80.5859 25.4609L80.3047 24.8281L80.0469 24.1953C79.9392 23.9303 79.8703 23.6479 79.8359 23.375L79.7656 22.8125L79.3672 22.3438C79.1442 22.0779 78.9623 21.7527 78.8281 21.3828L78.5938 20.7266L78.3828 20.1406L78.1016 19.5078L77.8438 18.875C77.8095 18.7917 77.7783 18.7028 77.75 18.6172L77.3281 17.3047L77.3047 17.2344L77.0703 16.5781L76.8594 15.9219C76.758 15.6074 76.7237 15.2843 76.7188 14.9844L76.6953 14.2344V13.625L76.6484 12.9219L76.2734 12.3594C76.2065 12.2551 76.143 12.1455 76.0859 12.0312L75.4766 10.7656C75.3012 10.4118 75.1839 10.0409 75.1484 9.66406L75.0781 8.96094L75.0547 8.86719V8.84375L74.6797 8.23438C74.6329 8.15564 74.6039 8.05937 74.5625 7.97656L74.375 7.64844L74.0703 7.50781C73.8497 7.40812 73.6787 7.25979 73.5078 7.13281L73.3906 7.22656L73.1562 7.48438L72.7344 7.95312C72.7033 7.98683 72.6701 8.01648 72.6406 8.04688L72.4766 8.1875L72.5 8.46875C72.508 9.33659 72.1427 10.1167 71.5859 10.6719L71.2578 10.9766V11.3047C71.2343 11.6813 71.1448 12.0644 70.9766 12.4297L70.6719 13.0625L70.3906 13.6953L70.3672 13.7188L69.8047 14.9844C69.7594 15.0849 69.7173 15.1947 69.6641 15.2891L69.3125 15.8984L69.125 16.2031L69.0312 16.5547L69.0547 16.7422L69.1953 17.5156C69.3638 18.4915 69.0317 19.5347 68.2812 20.2578L67.7422 20.7969L67.5781 20.9375V21.1484L67.625 21.875C67.6708 22.7159 67.367 23.5426 66.8047 24.1484L66.4062 24.5234L66.3828 24.9922C66.3329 25.4551 66.1833 25.9063 65.9375 26.3047L65.6328 26.7969V27.4297C65.6353 27.7211 65.6054 28.0314 65.5156 28.3438L65.3047 29.0234L65.1172 29.6797C65.0749 29.8247 65.0139 29.9637 64.9531 30.1016L64.6719 30.7344L64.5312 31.0625L64.3203 31.7188L64.1328 32.375C63.9944 32.8529 63.7613 33.272 63.4766 33.5938L62.9844 34.1562L62.9141 34.4844L62.8438 35.1641L62.7969 35.8672C62.7776 36.0989 62.7297 36.3354 62.6562 36.5703L62.2344 37.8828C62.085 38.3592 61.841 38.7671 61.5547 39.0781L61.4141 39.2188L61.4375 39.4297C61.534 40.4037 61.1579 41.3243 60.4766 41.9609L59.9844 42.4062L59.8672 42.9453C59.8409 43.0555 59.8104 43.1654 59.7734 43.2734L59.3047 44.5859C59.2724 44.6791 59.2503 44.7773 59.2109 44.8672L58.9766 45.3594L59.1172 46.0625C59.2645 46.9692 58.9887 47.9386 58.2969 48.6641L57.8984 49.0625L57.8516 49.5547C57.8485 49.5771 57.7982 49.6311 57.7812 49.7188C57.7944 49.902 57.8576 50.045 57.8516 50.1406L57.8281 50.4688L58.0156 50.75C58.1272 50.9128 58.2213 51.0773 58.2969 51.2422L58.4609 51.6172L58.5781 51.6875L58.7656 51.7344L59.2109 51.5703L60.1953 51.3359L61.25 51.4531L61.8594 51.6406L62.4922 51.4766L63.5 51.3828L64.4375 51.6172L64.6953 51.7109L64.9531 51.6172L65.9141 51.3594L66.9688 51.4766L67.3203 51.5703L67.7656 51.3828L68.7734 51.125L69.875 51.2188L70.5547 51.4297L70.7656 51.4766H70.9531L71.6562 51.4062L72.8281 51.5469L73.5078 51.7578L73.6719 51.8047H73.8125L74.1406 51.7578L74.5859 51.6406L75.2656 51.4062C75.7379 51.2536 76.268 51.2186 76.7891 51.3125L77.4922 51.4531L78.1719 51.5703H78.1484ZM54.5469 49.9766L54.7109 49.9297H54.5703L54.5469 49.9766ZM54.7109 49.9297L54.5469 49.9766L54.5703 49.9297H54.7109Z" fill="#254335"/>
<path d="M98.6548 70.2826L77.121 25.5261C75.6646 22.4991 71.3514 22.5068 69.9059 25.5389L53.7787 59.3667C53.266 60.442 53 61.6182 53 62.8094V75.9523C53 76.3157 52.9505 76.6775 52.8528 77.0275L49.8327 87.8496C48.4095 92.9493 52.2437 98 57.5382 98H73.5H92.0432C96.6359 98 100.286 94.1419 100.031 89.5562L99.0442 71.7949C99.015 71.2701 98.8827 70.7562 98.6548 70.2826Z" fill="white"/>
</g>
<defs>
<clipPath id="clip0_48_11">
<rect width="748" height="50" fill="white"/>
</clipPath>
</defs>
</svg>
