<svg width="117" height="114" viewBox="0 0 117 114" fill="none" xmlns="http://www.w3.org/2000/svg">
<path d="M40.7081 34.0263C86.0614 4.08161 84.9658 68.9744 114.449 86.9019C48.7085 120.014 -9.11521 82.7222 25.0023 46.4646C15.3948 38.455 -1.4954 32.1449 4.68279 25.8676C11.5873 18.8523 20.438 16.9297 40.7081 34.0263Z" fill="#317C67"/>
<path d="M10.687 18.1665L11.3948 18.0011L11.3783 18.0298L12.714 17.6719C13.2827 17.529 13.8471 17.5689 14.3521 17.7182L14.9803 17.8896L15.5689 17.7319C15.9686 17.6207 16.3725 17.6075 16.7616 17.6549L17.8701 17.9888L18.3067 18.26L18.7656 18.1613L19.5612 18.1423L20.2558 18.1988L20.9564 18.278L21.944 18.5229L22.58 18.8135L23.0211 19.0107L23.6841 19.2213L24.3532 19.4545L25.5709 20.1959L25.7448 20.3919L26.1086 20.3915C26.4708 20.3924 26.8453 20.4468 27.2034 20.5834L28.2263 21.2314L28.7462 21.7229L29.0757 22.0471L29.6288 22.4813L29.6575 22.4979L29.7376 22.5249L30.4564 22.672C30.7614 22.7379 31.0533 22.8665 31.3264 23.0212L32.0926 23.6167L32.5733 24.143L32.6837 24.2833L32.8499 24.3601L33.4919 24.6733L34.5815 25.5703L35.0003 26.1375L35.1168 26.3004L35.2603 26.3833L35.8405 26.7374L36.2545 27.0147L36.7275 27.4217L37.4916 27.5567L38.8027 28.1032L39.3724 28.5086L39.9194 28.9201C40.3234 29.2133 40.6198 29.5696 40.8234 29.9396L41.064 30.3847L41.2043 30.2743L42.5004 29.5873L43.4512 29.3326L43.6367 29.21L44.1708 28.8486L44.6203 28.534L45.1814 28.0925C45.3029 28.0006 45.4547 27.9151 45.5978 27.8353L46.1892 27.507L46.758 27.1848L47.1909 26.8989L47.7642 26.5027L48.4688 26.144L49.2219 25.9665L49.6189 25.9086L49.9326 25.6305L51.1199 24.8998L52.4423 24.7639L53.2169 24.8475L53.4162 24.8669L53.5973 24.8184L53.7149 24.714L54.3092 24.2151L54.973 23.7946C55.2275 23.6725 55.5154 23.5687 55.8211 23.5188L56.5185 23.4048L57.1932 23.2968L57.6415 23.2494L58.3179 23.238L59.0169 23.2206L59.1814 23.2008L60.5915 23.2112L60.7621 23.214L61.4219 23.2313L62.1104 23.2652C62.1407 23.2662 62.1768 23.2622 62.207 23.2636L62.9181 23.2914L63.6066 23.3253L64.1366 23.4017L65.5229 23.6854L66.2191 23.8385L66.8866 23.9751C66.9985 23.9984 67.113 24.0204 67.2233 24.0547L68.5494 24.4759L69.0418 24.6836L69.6551 24.9803L70.2745 25.2996L70.4981 25.4096L71.0782 25.7637L71.1643 25.8134L71.341 25.8388L72.093 25.9285C72.4371 25.9745 72.7803 26.0776 73.0988 26.2413L73.9859 26.9257L74.444 27.4581L74.6874 27.7326L75.0848 28.0386L75.3613 28.2557L75.9581 28.581L76.5835 28.923C76.8677 29.0779 77.1084 29.2814 77.321 29.5019L77.8563 30.2319L78.1029 30.6997L78.5561 30.9422C78.9565 31.1465 79.2877 31.4222 79.5475 31.7442L80.0998 32.8094L80.2151 33.2395L80.5308 33.4219L81.3803 34.2376L81.7705 34.7882L82.1893 35.3554L82.3527 35.6028L82.7097 36.2108L83.0833 36.7901L83.1771 36.959L83.5115 37.5731L83.6417 37.8779L83.9486 38.2082L84.4006 38.7179L84.8438 39.3756L85.1494 39.9731L85.4612 40.5933L85.502 40.6551L85.7139 41.0836L86.3741 41.4648C86.6048 41.5955 86.8351 41.7734 87.0481 41.9879L87.6242 42.7798L87.9421 43.4226L88.2538 44.0427L88.5474 44.5949L88.8818 45.209L89.0831 45.6888L89.333 46.3498L89.4119 46.6441L89.5979 46.8855L90.0107 47.43C90.2908 47.8187 90.4622 48.2621 90.5436 48.6945L90.5998 48.9949L90.9338 49.2451C91.7037 49.8282 92.1293 50.7325 92.14 51.6638L92.1299 52.079L92.3672 52.3308C92.5302 52.5089 92.6717 52.7174 92.7982 52.9432L93.1326 53.5573L93.4836 54.1427C93.5329 54.2312 93.566 54.3332 93.6077 54.4248L93.8968 55.051L94.0149 55.3106L94.1887 55.5066L94.6695 56.033L95.2776 57.0347L95.5214 57.673L95.6229 57.9613L95.8801 58.3776L96.2537 58.9569C96.534 59.3874 96.6843 59.8619 96.7369 60.3076L96.8344 61.0337L96.8498 61.2722L96.9557 61.4864L96.9905 61.5256L97.5949 61.9703C98.368 62.5399 98.8227 63.4165 98.8569 64.3255L98.8605 64.8826L99.1569 65.2642L99.5835 65.9506L99.85 66.5829L100.127 67.1638L100.292 67.5078L100.877 67.7879C101.129 67.9082 101.397 68.0797 101.647 68.3094L102.293 69.1797L102.621 69.7712L102.933 70.3913L102.951 70.4592L103.279 71.0506L103.591 71.6708L103.913 72.2396L104.248 72.8536C104.34 73.0176 104.417 73.183 104.478 73.35L104.514 73.4859L104.812 73.6003C105.792 74.0057 106.516 74.8976 106.682 75.9623L106.678 76.0363C107.007 76.1996 107.321 76.3976 107.575 76.6693L108.206 77.665L108.314 77.9758L108.595 78.1189L109.146 78.4565L110.24 79.2795L110.83 79.8494L111.265 80.3879L111.48 80.6458L112.309 81.297L112.911 81.9123L113.352 82.4734L113.702 82.9621L112.21 84.1868L113.771 83.0405L113.724 82.956L114.189 83.5111L114.334 83.6906L114.506 83.79L115.115 84.1607L115.373 84.3098C115.43 84.3509 115.537 84.4556 115.662 84.5722L116.33 85.4365L116.448 85.696C117.085 86.998 116.571 88.1415 116.281 88.604C116.006 89.0418 115.7 89.3126 115.595 89.3944C115.346 89.5886 115.101 89.6846 115.049 89.7106L114.429 90.0223L114.017 90.2055L113.596 90.5366L113.023 90.9329C112.937 90.9945 112.853 91.0698 112.759 91.1249L112.174 91.4759L111.644 91.7634L111.071 92.1596L110.491 92.5332C109.905 92.9194 109.253 93.0571 108.686 93.0411L108.294 93.025L108.081 93.2275C107.74 93.5322 107.325 93.7904 106.837 93.925L105.682 94.2344L105.202 94.4358L104.547 94.7083C104.61 94.6815 104.686 94.6624 104.745 94.6311L104.153 94.9594L103.533 95.2711C103.175 95.465 102.796 95.5956 102.42 95.6424L101.716 95.7338L101.523 95.737L101.422 95.8126L100.814 96.1697C100.481 96.3564 100.103 96.4779 99.7228 96.5348L99.048 96.6428L98.3446 96.7343L98.3899 96.7221L97.6986 96.8588L97.4661 96.8968L97.2579 97.0254L96.6212 97.3659C96.3211 97.5286 95.9859 97.6411 95.6433 97.7007L94.9686 97.8087L94.9399 97.7921L94.9067 97.8495L94.323 98.2971C93.8453 98.6548 93.2461 98.8787 92.5936 98.9061L91.9172 98.9175L91.3606 99.285L91.3893 99.3016C90.9079 99.6052 90.3285 99.7829 89.7488 99.7897L89.0437 99.7845L88.316 99.7854C88.2838 99.7857 88.2517 99.7871 88.2194 99.787L87.7529 99.7664L87.3094 100.104C86.6449 100.589 85.8074 100.794 84.982 100.654L84.2466 100.536L83.9673 100.49L83.7122 100.534L83.3605 100.579L83.0557 100.71L82.4008 100.982C82.3581 101 82.3144 101.024 82.271 101.041L81.6161 101.314L80.9778 101.558C80.8158 101.622 80.6373 101.681 80.4631 101.72L79.8005 101.873L79.1153 102.032C78.6096 102.146 78.1056 102.109 77.6765 102.005L77.0029 101.846L76.4596 101.992L75.7926 102.219L75.1316 102.469C74.4946 102.689 73.8284 102.679 73.2505 102.512L72.5422 102.313L72.1994 102.211L71.9835 102.221L71.2906 102.261C71.1759 102.264 71.0582 102.24 70.9433 102.232L70.9494 102.255L70.5508 102.216L70.0847 102.559C69.6424 102.865 69.0317 103.107 68.3144 103.107L67.6154 103.124L66.933 103.113C66.7611 103.113 66.5814 103.107 66.4151 103.082L65.7023 102.957L65.0183 102.849C64.724 102.804 64.4449 102.715 64.2012 102.607L63.5139 102.306L63.2014 102.317L62.8514 102.459L62.139 102.699C61.619 102.883 61.0265 102.935 60.418 102.796L59.7219 102.643L59.4652 102.59L58.4597 102.641C57.9957 102.668 57.54 102.588 57.143 102.436L56.5192 102.191L55.8731 102.315C55.8437 102.32 55.8061 102.312 55.7765 102.317L55.0792 102.431L54.3757 102.522C53.691 102.626 53.0145 102.5 52.4429 102.191L52.0697 101.976L51.6335 102.068C51.0127 102.192 50.347 102.136 49.731 101.85L49.0663 101.543L48.4243 101.23L48.4016 101.236L47.7657 100.945L47.6282 100.885L47.4576 100.882L46.7691 100.848C46.4849 100.836 46.1836 100.784 45.9024 100.692L45.2393 100.482L44.9191 100.373L44.5719 100.345L43.8834 100.311C43.5154 100.287 43.1516 100.204 42.8217 100.062L42.1858 99.7711L42.0196 99.6943L41.8264 99.6976L41.1153 99.6698C40.7219 99.654 40.3077 99.5587 39.9222 99.3828L39.9162 99.3602L39.3089 99.0861L38.679 98.8182C38.4808 98.7277 38.2968 98.6192 38.1336 98.5033L37.5579 98.0752L37.4718 98.0255L37.4204 98.015L36.7364 97.9071C36.3103 97.8319 35.9024 97.652 35.534 97.4043L35.0913 97.1104L34.4437 97.1384C33.5876 97.1324 32.7378 96.7524 32.1461 96.0798L31.6245 95.4916L31.0355 95.2855C30.6594 95.1455 30.3298 94.927 30.0474 94.6767L29.6031 94.2862L28.9991 94.2054C28.7039 94.1601 28.399 94.0784 28.102 93.9362L26.8179 93.3097C26.4097 93.1102 26.0507 92.8275 25.7752 92.4972L25.3111 91.9422L25.1372 91.7461L25.0224 91.6798L24.4257 91.3544C24.031 91.126 23.7066 90.8079 23.4614 90.4724L23.0425 89.9052L22.7401 89.501L22.4514 89.2386L21.9602 88.7637L21.9254 88.7244L21.2906 88.1666L21.1018 88.0959L20.398 87.8234C19.706 87.5563 19.0699 87.0055 18.7112 86.2372L18.3994 85.6171L17.8646 85.2509C17.3036 84.8587 16.8812 84.2885 16.6775 83.6278L16.4668 82.9321L16.4304 82.7962L16.3321 82.7012L15.8967 82.1628L15.416 81.6364L14.9518 81.0814C14.7939 80.8994 14.6422 80.7071 14.5269 80.4916L14.209 79.8488L13.8747 79.2348C13.5595 78.6424 13.4765 78.0215 13.5268 77.4839L13.5878 76.7154L13.6072 76.5161L13.3634 75.8777C13.3061 75.7177 13.2625 75.546 13.2299 75.3797L13.0993 74.711L13.005 74.1782L12.7199 73.1142L12.5081 72.6856L12.2129 72.0368C11.9343 71.4554 11.8298 70.7911 11.9479 70.1424L12.0784 69.4523L12.1751 69.4507L12.1767 69.5473L12.4544 69.4971L12.0784 69.4523L12.1415 69.1442L12.0913 68.8665L12.0286 68.1796C12.0226 68.1242 12.0126 68.0697 12.0088 68.0151L11.9687 67.3222L11.9225 66.6066C11.9111 66.4354 11.9094 66.2482 11.9249 66.0722L11.9875 65.4002L12.0441 64.7057C12.0792 64.3232 12.1949 63.9732 12.3448 63.6545L12.6293 62.996L12.5787 62.3544L12.6276 61.5406L12.7581 60.8505L12.866 60.1664L13.3688 58.9641L14.1675 57.7795L14.3769 57.3837L14.3919 57.2583L14.4302 56.4959L14.6735 55.4116C14.8232 55.0647 15.0497 54.7442 15.3396 54.4566L15.8312 53.9367L15.982 53.775L16.0648 53.6314L16.3555 52.9955C16.4644 52.7627 16.609 52.5483 16.7653 52.3519L17.1995 51.7988L17.3939 51.5283L17.5536 51.2186L17.8276 50.6114L18.2646 49.8877C18.4372 49.6768 18.6375 49.4958 18.8467 49.3435L19.088 49.1575L19.1782 48.7694L19.4324 47.9976C19.5571 47.7396 19.7101 47.472 19.9312 47.2331L20.2267 46.887C20.0908 46.7564 19.939 46.6399 19.8276 46.4843L19.3966 45.8719L19.2862 45.7316L19.2288 45.6985L18.62 45.3278C18.4094 45.1975 18.2092 45.0458 18.0382 44.8771L17.5817 44.4413L16.9882 44.3092C16.4965 44.1927 16.0093 43.9389 15.5999 43.565L15.086 43.0961L14.959 42.9845L14.7702 42.9138L14.1177 42.6519C13.8171 42.5323 13.5344 42.3573 13.2792 42.1486L12.7261 41.7145L12.38 41.419L11.3467 40.8224C11.1917 40.7327 11.0356 40.6181 10.8979 40.5059L9.837 39.6255C9.75622 39.5595 9.66301 39.4964 9.58916 39.425L9.09186 38.9273L8.82582 38.6589L8.2788 38.2474L8.25616 38.2535L7.49814 38.1412C6.78392 38.0329 6.03711 37.6548 5.51143 36.975L5.09255 36.4078L4.44609 36.1686C3.77946 35.888 3.23031 35.3826 2.89841 34.7392L2.55795 34.1025L2.29311 33.5668L1.94214 32.9815L1.58512 32.3735C1.43063 32.1168 1.29211 31.8369 1.21271 31.527L1.05943 30.8644L0.980571 30.5701L0.792958 30.2321L0.395094 29.5622C0.156019 29.1367 -0.0828009 28.4568 0.0274432 27.6468C0.138046 26.8348 0.56095 26.2582 0.919124 25.9035L1.44989 25.3488L1.89173 24.915L2.12537 24.6097L2.50817 24.0461L3.30291 23.2994L3.82035 22.9666L3.83086 22.9153L4.16069 22.2445L4.75006 21.4558C4.98855 21.2185 5.2823 21.0171 5.6099 20.8614L6.23003 20.5496L6.70989 20.3483L7.18205 20.0276L7.68293 19.7236L8.15953 19.329L8.72063 18.8875L9.99566 18.3032L10.687 18.1665ZM11.8324 24.0712L11.2713 24.5127C11.19 24.5757 11.099 24.6457 11.0073 24.7048L10.4054 25.0844L9.82608 25.458C9.70318 25.5365 9.57672 25.6197 9.44891 25.6804L9.03697 25.8636L8.83972 26.3047C8.62139 26.7342 8.28676 27.1571 7.81902 27.476L7.23973 27.8496L7.11603 27.9312L6.99395 28.1095L6.63217 28.5704C6.6509 28.6289 6.68733 28.6831 6.70333 28.7455L6.87925 29.402L6.9112 29.6118L7.07455 29.8592L7.43158 30.4672L7.56016 30.6754L7.7312 31.0421L8.11487 31.2062C8.35487 31.307 8.59342 31.4441 8.80379 31.6039L9.39327 32.1739L9.54449 32.376L9.92653 32.4435C10.1497 32.4774 10.3911 32.524 10.6288 32.6193L11.3238 33.0397L11.8934 33.4451L12.4404 33.8566C12.5547 33.9427 12.6581 34.0393 12.7578 34.1356L13.2778 34.6271L13.7751 35.1247L14.1725 35.4307L14.5186 35.7262L15.5519 36.3228L16.0007 36.6394L16.5538 37.0735L16.7155 37.2243L16.9844 37.3221L17.6369 37.584L18.6024 38.1988L19.0815 38.6285L19.7837 38.8043C20.0507 38.8676 20.3189 38.9675 20.5676 39.1038L21.2642 39.6208L21.7615 40.1185L21.9928 40.3477L22.372 40.5857L22.9522 40.9398L23.8651 41.8114L24.1328 42.1764L24.5844 42.3223C24.9394 42.4302 25.3036 42.6122 25.6283 42.8676L26.7344 43.7359C27.1212 44.0439 27.5388 44.5465 27.7493 45.2595C27.9586 45.9693 27.8711 46.6078 27.7228 47.0622L27.5122 47.7252L27.2851 48.4169C27.0327 49.1765 26.5069 49.772 25.8755 50.1292L25.2449 50.4923L24.9461 50.6451L24.8903 50.7086L24.7659 51.4213C24.6283 52.1312 24.2342 52.8546 23.5589 53.3462L22.9856 53.7424L22.7674 54.2862C22.654 54.5427 22.4927 54.7757 22.3244 54.9872L21.8902 55.5403L21.6505 55.8229L21.503 56.1779L21.2063 56.7912C21.0431 57.14 20.8365 57.4569 20.5793 57.7114L20.3441 57.92L20.3445 58.2839C20.3254 58.7097 20.2292 59.1857 19.9808 59.6431L19.33 60.8366C19.2716 60.9441 19.2117 61.058 19.1477 61.1523L18.7257 61.7507L18.6699 61.8142L18.6549 61.9395L18.5588 62.305L18.6045 62.6567L18.6733 63.3662C18.7086 63.8975 18.603 64.4269 18.3807 64.9004L18.0674 65.5424L17.9514 65.7434L17.9547 65.9366L17.9098 66.3126L17.9483 66.9089L17.9884 67.6018L18.0555 68.2147L18.1409 68.8955C18.1758 69.2136 18.1532 69.5351 18.0997 69.8285L17.9991 70.268L18.2458 70.7357C18.331 70.9137 18.399 71.1237 18.4548 71.3348L18.8067 72.6479C18.8277 72.728 18.8349 72.8221 18.8507 72.903L18.9814 73.5717L19.0453 73.9913L19.2527 74.4938L19.4739 75.1382C19.6469 75.623 19.6744 76.0862 19.6386 76.4771L19.5594 77.1777L19.6653 77.392L19.9374 77.6831L20.4182 78.2094C20.4441 78.2391 20.4683 78.28 20.4938 78.3104L20.9292 78.8489L21.3873 79.3813L21.9971 80.4797L22.1123 80.9098L22.4976 81.1705C22.9371 81.4775 23.295 81.8984 23.5302 82.3982L23.6196 82.6412L23.9685 82.7661L24.9853 83.3914L25.4765 83.8664L25.9904 84.3353L26.0252 84.3745L26.5391 84.8434L27.0242 85.2958L27.4641 85.7602L27.8891 86.35L27.936 86.4345L28.6249 86.8323L29.4727 87.5514L29.9369 88.1064L29.9777 88.1683L30.0638 88.218L30.2874 88.3279L30.6407 88.3788L31.3761 88.4972C31.939 88.5839 32.4942 88.8292 32.9577 89.2381L33.5003 89.7236L33.6272 89.8352L33.7647 89.8954L34.4112 90.1347L35.1166 90.5037L35.6819 90.9832L35.7922 91.1234L36.0142 91.1368C36.2877 91.1384 36.5794 91.1632 36.8688 91.2475L37.7344 91.6707L38.298 92.0535L38.3554 92.0866L38.4581 92.1076L39.1709 92.2321L40.4306 92.768L41.029 93.19L41.3342 93.4237L41.804 93.6375L41.8841 93.6646L42.0607 93.69L42.7945 93.7118L43.9136 93.9943L44.5661 94.2562L44.761 94.3496L44.9603 94.369L45.6488 94.4029C45.9166 94.4201 46.1851 94.4712 46.4415 94.5544L47.1046 94.765L47.4474 94.8672L47.7207 94.8911L48.4318 94.9189L49.5962 95.1893L50.2321 95.4799L50.862 95.7479C50.8957 95.763 50.9376 95.776 50.9707 95.7915L51.3892 95.9948L51.922 95.9006C52.6218 95.7616 53.3575 95.8717 53.9968 96.2182L54.4213 96.4441L54.8923 96.3907L54.9149 96.3846L55.6123 96.2706L56.3323 96.1504C56.6051 96.1064 56.8799 96.0971 57.1505 96.1253L57.9555 96.3221L58.608 96.584L58.688 96.6111L58.7846 96.6095L59.4776 96.5694L60.3714 96.6453L60.9362 96.7609L61.5353 96.5519L62.3851 96.3727L63.0493 96.316L63.7422 96.2759C64.0249 96.2543 64.2971 96.2551 64.55 96.3022L65.2417 96.5293L65.929 96.8304L66.2613 96.984L67.1447 97.1113L67.3832 97.0959L67.9852 96.7162L68.8648 96.2864C69.1906 96.188 69.5553 96.1408 69.9487 96.1659L70.6432 96.2224L71.1098 96.243L72.5077 96.2081L73.4877 96.3337L74.0133 96.4841L74.5053 96.328L74.6637 96.2855L76.0099 95.8763L76.8492 95.7485L77.6464 95.826L78.3713 95.9957L78.474 96.0168L78.9494 95.8894L79.4127 95.7167L80.0284 95.4789L80.307 96.1565L80.051 95.4729L80.0284 95.4789L80.6833 95.2064L81.3321 94.9112L82.1471 94.6928L82.8219 94.5848L83.5192 94.4708C83.8696 94.4189 84.2089 94.4409 84.5202 94.4937L84.7709 94.5236L84.9791 94.3951L85.83 93.9487C86.1351 93.8475 86.4627 93.784 86.8051 93.7844L87.5102 93.7896L88.2379 93.7888L88.8402 93.7729L89.409 93.4507L90.1197 93.1147C90.3777 93.0326 90.6497 92.9822 90.9303 92.9703L91.436 92.9561L91.9021 92.6128L93.2511 92.033L93.9198 91.9023L94.1749 91.8582L94.3665 91.7584L95.0032 91.4179L95.9524 91.0665L96.6271 90.9585L97.2958 90.8279L97.3184 90.8218L97.4603 90.8081L98.1577 90.694L98.2935 90.6576L98.4686 90.5864L99.1053 90.246L100.264 89.8626L100.968 89.7712L101.155 89.7453L101.285 89.6863L101.899 89.3519L102.198 89.199L103.462 88.6661L103.903 88.4995L104.604 88.3115L105.193 87.7899L106.217 87.1757L107.334 86.9977L107.942 87.0045L108.336 86.7535C108.394 86.7152 108.468 86.689 108.528 86.6536L108.814 86.4555L108.575 86.107L108.383 85.843L108.113 85.6486L107.589 85.231C107.381 85.0726 107.169 84.8866 107.005 84.6837L106.592 84.1392L106.378 83.8813L106.078 83.6702L105.687 83.3869L105.297 83.2001L104.649 82.8642C103.945 82.5192 103.385 81.9154 103.109 81.1903L102.985 80.9081L102.704 80.765C101.761 80.3162 101.175 79.4464 101.012 78.5251C100.322 78.2306 99.6451 77.6412 99.3216 76.7456L99.0883 76.0559L98.8627 75.4855L98.6811 75.1702L98.3302 74.5848C98.3042 74.5386 98.2895 74.4797 98.2651 74.4324L97.9533 73.8123L97.6189 73.1982L97.6007 73.1303L97.3844 72.7758L96.8285 72.5122C96.3185 72.2695 95.7429 71.8175 95.3835 71.1039L95.0718 70.4837L94.7539 69.841C94.7297 69.7921 94.7112 69.7381 94.6888 69.6886L94.3997 69.0624L94.253 68.7863L94.0261 68.4831L93.5846 67.922C93.1292 67.3526 92.9301 66.6991 92.9061 66.1141L92.8863 65.9496L92.8228 65.8938C92.4582 65.625 92.1065 65.2549 91.8658 64.7672L91.5767 64.141L91.2649 63.5208C91.0955 63.1762 91.0025 62.8192 90.9632 62.4855L90.8657 61.7594L90.8415 61.6689L90.4679 61.0896C90.3384 60.8907 90.2331 60.6675 90.1501 60.4468L89.9002 59.7858L89.829 59.6108L89.7307 59.5158L89.25 58.9895C89.0375 58.7534 88.8518 58.468 88.7131 58.1628L88.424 57.5366L88.2287 57.0794L87.8943 56.4653L87.7067 56.1273L87.4406 55.8589L86.9599 55.3326C86.4079 54.7289 86.1784 53.9805 86.1694 53.2879L86.1556 53.146L86.0982 53.1128C85.5188 52.6746 85.0607 52.0169 84.9123 51.2225L84.7922 50.5025L84.774 50.4346L84.7392 50.3954L84.3429 49.8222C84.1639 49.5736 84.0087 49.2978 83.9087 49.0165L83.6814 48.3494L83.4861 47.8922L83.2742 47.4637L82.9399 46.8496C82.9145 46.8027 82.8982 46.7445 82.8748 46.6972L82.6342 46.2521L82.0314 45.9041C81.5851 45.6498 81.1284 45.2302 80.816 44.6283L80.4877 44.0369L80.1759 43.4168L80.1351 43.3549L79.8234 42.7348L79.6705 42.436L78.9751 41.6518C78.8129 41.4672 78.6601 41.2541 78.5441 41.0394L78.2323 40.4192L77.9448 39.8897L77.5712 39.3104L77.2203 38.725L77.3307 38.8653L77.2142 38.7024L76.9179 38.3208L76.7953 38.1352L76.6805 38.0689L76.0716 37.6983C75.4052 37.2679 74.9794 36.6319 74.7863 35.9802L74.6848 35.692L74.5474 35.6317C73.9603 35.3332 73.4871 34.8596 73.1945 34.2957L72.901 33.7435L72.4765 33.5175C72.3402 33.4435 72.1973 33.358 72.0685 33.2629L71.5215 32.8514L70.9519 32.4459C70.7705 32.3111 70.6091 32.1524 70.4667 31.9936L70.2233 31.7191L69.8247 31.6803C69.4489 31.6308 69.0415 31.5161 68.6527 31.2907L68.0498 30.9427L67.5845 30.6549L66.9712 30.3582L66.524 30.1383L66.0951 29.9863L65.5408 29.8194L63.5898 29.4202L63.1216 29.303L62.6324 29.2885L61.9213 29.2606L61.2328 29.2267L60.5504 29.2155L60.573 29.2094L59.868 29.2042L59.169 29.2216L59.1629 29.199L58.544 29.2435L57.9416 29.2594L57.5673 29.3111L57.0183 29.7979C56.7187 30.0514 56.3115 30.2957 55.8294 30.4319L55.1728 30.6078L54.5224 30.8064C54.0855 30.9283 53.6747 30.921 53.3298 30.8833L53.1531 30.8579L53.12 30.9153C52.6179 31.4158 51.9629 31.7356 51.2474 31.8052L50.5379 31.874L49.9586 32.2476C49.8735 32.3054 49.7847 32.3634 49.6886 32.417L49.0972 32.7454L48.7758 32.9043L48.2539 33.311L47.6867 33.7299C47.6038 33.7926 47.5128 33.8653 47.4228 33.922L46.8435 34.2956L46.2581 34.6465C45.9763 34.824 45.6623 34.9555 45.3437 35.0371L44.6645 35.2191L44.1382 35.6998C43.8562 35.9489 43.5245 36.1366 43.1983 36.2671L42.5147 36.5231L41.9896 36.7366C41.4948 36.9964 40.9149 37.1925 40.2447 37.107C39.3515 36.9928 38.788 36.5144 38.6118 36.3556L38.0191 35.5924L37.7729 35.4885C37.1131 35.201 36.6065 34.7058 36.2947 34.1376L35.9256 33.4843L35.8499 33.3832L35.8439 33.3606L35.8091 33.3214L35.7125 33.323L34.9484 33.1881C34.4748 33.1078 33.9541 32.9066 33.4816 32.5134L32.9512 32.0732L32.525 31.7507L32.1171 31.496L31.5369 31.1419C31.1922 30.93 30.8951 30.6478 30.6709 30.3549L30.252 29.7877L30.2173 29.7485L30.1886 29.7319L29.5466 29.4187C29.1957 29.243 28.8847 28.9938 28.6308 28.7177L28.2892 28.3482L27.7757 28.2432C27.3426 28.1496 26.8901 27.9599 26.5038 27.6619L25.9507 27.2278L25.4037 26.8163C25.3072 26.7418 25.228 26.6501 25.1438 26.5705L24.9186 26.3639L24.5608 26.387C23.7901 26.3862 23.0071 26.0947 22.4083 25.5079L21.8823 24.9937L21.8128 24.9153L21.1498 24.7047C21.0435 24.6698 20.9312 24.6406 20.8296 24.5964L20.171 24.3118L19.9474 24.2019L19.7028 24.1946L19.3042 24.1559L18.9525 24.2016L18.2325 24.3217C17.549 24.4233 16.8666 24.2795 16.2935 23.9677L16.0126 23.8246L15.8149 23.9019C15.2297 24.0662 14.6251 24.039 14.0862 23.8798L13.3779 23.6814L12.6534 23.8755L11.9395 24.0182L11.8655 24.0138L11.8324 24.0712ZM112.449 85.894L112.942 85.4707L112.83 85.2338L112.449 85.894ZM112.942 85.4707L112.449 85.894L112.83 85.2338L112.942 85.4707ZM113.771 83.0405L112.21 84.1868L113.702 82.9621C113.72 82.9838 113.754 83.0172 113.771 83.0405ZM21.8623 83.9613L21.4695 84.9401L22.4623 84.4799L22.8552 83.5011L21.8623 83.9613ZM22.4623 84.4799L21.4695 84.9401L21.8623 83.9613L22.8552 83.5011L22.4623 84.4799ZM19.6294 82.6912L20.7553 82.3653L21.4214 81.4103L20.2956 81.7363L19.6294 82.6912ZM20.7553 82.3653L19.6294 82.6912L20.2956 81.7363L21.4214 81.4103L20.7553 82.3653ZM12.4544 69.4971L12.1767 69.5473C12.1732 69.5151 12.1774 69.4826 12.1751 69.4507L12.4544 69.4971ZM24.0948 47.0152L24.3677 46.6752L23.8134 46.5083L24.0948 47.0152ZM24.3677 46.6752L24.0948 47.0152L23.8134 46.5083L24.3677 46.6752ZM41.8598 36.7956C41.8721 36.7906 41.899 36.79 41.9277 36.7774C41.9373 36.7732 41.9606 36.7502 41.9896 36.7366L41.8598 36.7956ZM42.7981 36.1317C42.5828 36.3634 42.3234 36.564 42.0122 36.7305C42.0347 36.7197 42.0687 36.6981 42.0967 36.6836C42.1364 36.6629 42.2204 36.6346 42.3109 36.5777C42.3609 36.5462 42.4331 36.4719 42.5296 36.3977C42.5848 36.3553 42.6734 36.2556 42.7981 36.1317ZM53.8719 25.9337L53.8343 26.0651L53.9099 26.1662L53.8719 25.9337ZM53.9099 26.1662L53.8343 26.0651L53.8719 25.9337L53.9099 26.1662Z" fill="#254335"/>
<path d="M43.4428 50.3936C44.2507 49.1276 45.8049 48.7411 47.1374 49.3309L47.1705 49.2735L47.9892 49.6122L48.2338 49.6194L48.9284 49.676C49.1887 49.6928 49.451 49.7331 49.6924 49.8109L50.3858 50.1347L50.9947 50.5054L51.2591 50.6772L51.5219 50.7523L52.1728 50.9176L52.7149 51.0393L53.405 51.1698L53.9367 51.3428L55.2296 51.8213L55.2069 51.8274L55.7673 52.0169L56.4303 52.2275C56.7049 52.3159 56.9723 52.4254 57.2037 52.5784L57.8098 53.1196L58.1166 53.4499L58.6074 53.561C59.0852 53.6516 59.5276 53.8339 59.8959 54.1136L60.7668 55.1905L61.1194 55.8725L61.2193 56.0641L61.3175 56.1591L61.3462 56.1756L61.535 56.2464L62.2494 56.4675C62.7211 56.6134 63.2138 56.8924 63.6228 57.3369L64.0975 57.8406L64.5782 58.3669C64.6537 58.4496 64.7255 58.5356 64.7929 58.6249L65.6306 59.7592L65.6654 59.7984L66.0782 60.3429L66.4623 60.8709L66.4971 60.9101L66.485 60.8648L66.9204 61.4033L67.2576 61.8467L67.7323 62.3504L68.3582 63.0562L68.7936 63.5947L69.2291 64.1331L69.5299 64.4408L70.0211 64.9157L70.0272 64.9384L71.0096 65.8883L71.1427 66.0225L71.6173 66.5262L71.9937 66.9349C72.0236 66.9626 72.0634 67 72.092 67.0299L72.0164 66.9289L72.4728 67.3646L73.1977 67.5344C73.476 67.6004 73.7514 67.704 74.0103 67.8504L74.7478 68.4293L75.2285 68.9556L75.3963 69.129L75.6259 69.2616L75.9356 69.4213L76.2785 69.5235L76.9581 69.7054C77.2185 69.7735 77.4665 69.8694 77.6906 69.9944L78.3238 70.4556L78.5837 70.7014L78.9824 70.7402C79.0533 70.7437 79.2368 70.7593 79.461 70.806C79.5694 70.8286 79.8428 70.8857 80.1528 71.0332C80.3134 71.1099 80.8407 71.3685 81.2711 71.9467L81.6584 72.6679L81.7175 72.7977L82.1218 73.854L81.8433 74.5353C81.7548 75.0148 81.6163 75.4932 81.2864 75.8977C80.4086 76.9734 78.9659 77.2179 77.7575 76.6734L77.2231 76.671C76.4804 76.6342 75.7777 76.3207 75.2473 75.8174L74.75 75.3198L74.0765 75.1605C73.8239 75.0943 73.5739 74.9785 73.3378 74.8489L72.7411 74.5235L72.1383 74.1755C71.8347 74.0088 71.5677 73.8035 71.3434 73.5635L70.9383 73.1382L70.3735 73.0226C69.8828 72.9082 69.3849 72.6753 68.9625 72.2846L68.4487 71.8156L67.9287 71.3241C67.8749 71.274 67.8182 71.2266 67.767 71.1733L67.2863 70.647L66.8237 70.1886L65.8413 69.2386C65.8166 69.2147 65.7959 69.1845 65.7717 69.1602L65.2744 68.6626L64.7998 68.1589C64.7124 68.0708 64.6112 67.9871 64.5337 67.8905L63.6628 66.8135C63.6899 66.8473 63.7317 66.8762 63.7611 66.9085L63.2864 66.4049L62.6605 65.699L61.7896 64.6221C61.7602 64.5853 61.7362 64.536 61.708 64.4984L61.2951 63.9539L60.8763 63.3867L60.8415 63.3475L60.4226 62.7804L60.155 62.4153L59.7438 61.9674L59.0068 61.7524C58.6349 61.6371 58.2292 61.4161 57.8586 61.0895L56.8429 60.197C56.5087 59.9024 56.2653 59.5714 56.1051 59.2543L56.0582 59.1698L56.0068 59.1593C55.3705 59.0363 54.7597 58.7119 54.2906 58.1875L53.8446 57.7004L53.2556 57.4943C53.1863 57.4717 53.1135 57.4566 53.0441 57.4296L51.9566 56.9931L51.5006 56.9212L50.827 56.7619C50.7489 56.7457 50.6715 56.7248 50.593 56.7033L49.936 56.5154L49.2625 56.3562C48.9574 56.2719 48.6794 56.1254 48.4316 55.9722L47.8515 55.6181L47.1569 55.5616C46.6537 55.529 46.27 55.3728 46.1466 55.3227L44.9216 54.826L44.6528 54.7282L44.4231 54.5956L44.3536 54.5172C42.957 53.6259 42.5517 51.7903 43.4428 50.3936ZM70.5583 68.46L71.6607 67.4124L71.6922 67.2584L70.5583 68.46ZM71.6607 67.4124L70.5583 68.46L71.6922 67.2584L71.6607 67.4124ZM60.4399 57.0494L59.9226 58.7409L61.1664 57.3157L61.4267 56.5666L60.4399 57.0494ZM61.1664 57.3157L59.9226 58.7409L60.4399 57.0494L61.4267 56.5666L61.1664 57.3157Z" fill="#254335"/>
</svg>
